<svg width="272" height="162" viewBox="0 0 272 162" fill="none" xmlns="http://www.w3.org/2000/svg">
<path d="M243.672 38.1809C227.877 25.3319 203.491 21.1605 182.112 23.8342C173.167 24.9554 164.371 27.6056 155.253 26.8479C141.952 25.7385 130.237 18.1553 118.128 12.5951C101.645 5.02499 82.7502 0.952117 65.2263 4.24579C45.3574 7.97931 29.0669 22.0839 27.1233 40.8018C26.2427 49.2823 35.1889 64.2223 32.3692 72.2571C29.5043 80.4087 8.58758 105.377 9.10299 124.369C9.61709 143.29 14.4341 149.175 21.242 158.791H243.541C247.78 149.047 251.101 141.254 246.138 128.459C242.172 118.236 252.946 109.816 257.114 100.3C260.824 91.8311 262.045 81.6454 261.14 72.417C259.904 59.8205 254.3 46.8298 243.672 38.1809Z" fill="#EBE9F5"/>
<path d="M261.669 139.374C258.201 138.907 254.534 140.307 252.271 142.963L251.691 147.869C252.723 146.52 254.239 145.416 255.942 145.354C257.712 145.289 259.325 146.338 260.659 147.499C261.993 148.66 263.224 150 264.834 150.738C266.444 151.476 268.608 151.416 269.713 150.038C270.752 148.741 270.472 146.823 269.771 145.32C268.298 142.163 265.137 139.841 261.669 139.374Z" fill="#FF735D"/>
<path d="M261.669 139.374C258.201 138.907 254.535 140.307 252.271 142.963L251.691 147.869C252.724 146.52 254.239 145.416 255.942 145.354C257.712 145.289 259.325 146.338 260.659 147.499C261.993 148.66 263.224 150 264.834 150.738C266.444 151.476 268.608 151.416 269.713 150.038C270.752 148.741 270.472 146.823 269.771 145.32C268.298 142.163 265.137 139.841 261.669 139.374Z" fill="#326861"/>
<path d="M248.144 135.21C244.592 135.641 241.031 137.001 238.617 139.632C236.203 142.262 234.531 146.196 236.06 149.418C238.323 151.538 241.316 152.715 244.424 152.707C247.533 152.699 250.52 151.507 252.772 149.374C254.769 147.482 256.1 144.937 258.28 143.258C260.736 141.366 264.17 140.812 267.1 141.834C262.249 136.897 255.031 134.375 248.144 135.21Z" fill="#4D7772"/>
<path d="M253.685 96.1467C251.193 96.982 249.671 99.5474 249.045 102.092C248.418 104.638 248.46 107.305 247.906 109.866C246.969 114.19 244.402 117.952 242.407 121.905C240.412 125.858 238.801 131.046 240.252 135.226L240.485 135.316C247.114 135.818 253.223 132.081 257.256 126.821C261.29 121.561 263.027 114.826 263.194 108.211C263.27 105.2 262.997 102.045 261.399 99.4867C259.8 96.9285 256.553 95.186 253.685 96.1467Z" fill="#62A4A1"/>
<path d="M256.902 138.312L255.781 138.343C255.296 138.381 254.702 138.434 254.014 138.511C253.331 138.621 252.548 138.72 251.7 138.922C249.703 139.359 247.759 140.007 245.902 140.857C243.623 141.895 241.488 143.222 239.552 144.806C237.504 146.499 235.785 148.39 234.475 150.279C233.31 151.946 232.241 153.676 231.27 155.461C231.041 155.883 230.83 156.286 230.636 156.666C230.128 157.661 229.738 158.504 229.46 159.146C229.366 159.357 229.288 159.548 229.22 159.715H229.3C229.373 159.557 229.454 159.38 229.544 159.184C229.849 158.536 230.265 157.679 230.805 156.665C230.994 156.309 231.198 155.935 231.418 155.541C233.138 152.571 235.569 148.323 239.704 144.987C243.208 142.128 247.325 140.108 251.738 139.084C252.579 138.873 253.355 138.763 254.033 138.642C254.715 138.552 255.306 138.486 255.788 138.434L256.902 138.358C257.157 138.339 257.291 138.324 257.291 138.316C257.291 138.308 257.158 138.306 256.902 138.312Z" fill="#1A2E35"/>
<path d="M213.377 120.051C213.209 122.927 215.557 125.877 218.452 125.894C220.091 125.903 221.599 125.068 222.967 124.17C224.334 123.272 225.677 122.265 227.26 121.853C228.339 121.571 229.578 121.645 230.538 122.153L220.702 113.398C214.588 114.461 213.548 117.175 213.377 120.051Z" fill="#FF735D"/>
<path d="M230.542 122.152L231.666 123.152C231.382 122.729 230.996 122.385 230.542 122.152Z" fill="#FF735D"/>
<path d="M213.377 120.051C213.209 122.927 215.557 125.877 218.452 125.894C220.091 125.903 221.599 125.068 222.967 124.17C224.334 123.271 225.677 122.265 227.26 121.853C228.34 121.571 229.579 121.646 230.542 122.154L220.702 113.398C214.588 114.461 213.548 117.175 213.377 120.051Z" fill="#326861"/>
<path d="M230.544 122.154L231.666 123.153C231.383 122.731 230.997 122.387 230.544 122.154Z" fill="black"/>
<path d="M232.565 114.063C229.816 113.103 226.982 112.242 224.07 112.195C221.157 112.148 217.769 113.166 215.721 115.228C217.711 113.946 221.114 114.666 222.789 116.337C224.464 118.008 225.256 120.341 225.896 122.613C226.535 124.885 227.1 127.241 228.458 129.175C229.816 131.109 232.209 132.542 234.519 132.014C236.036 131.668 237.282 130.528 238.06 129.185C238.837 127.841 239.193 126.301 239.445 124.772C239.814 122.535 239.942 120.099 238.79 118.143C237.508 115.961 234.961 114.899 232.565 114.063Z" fill="#498981"/>
<path d="M233.427 121.147C233.099 120.078 232.685 119.037 232.188 118.035C231.252 116.208 230.181 114.908 229.376 114.097C229.17 113.897 228.995 113.712 228.83 113.566L228.401 113.208L228.139 112.991C228.11 112.965 228.078 112.943 228.043 112.926C228.043 112.926 228.068 112.958 228.123 113.012L228.373 113.246L228.784 113.619C228.944 113.77 229.112 113.959 229.312 114.163C230.411 115.339 231.33 116.669 232.04 118.111C232.522 119.109 232.924 120.144 233.241 121.205C233.597 122.425 233.848 123.674 233.99 124.938C234.155 126.332 234.192 127.739 234.1 129.14C233.992 130.592 233.673 132.082 233.313 133.59C232.576 136.609 231.687 139.44 230.851 142.002C230.015 144.564 229.207 146.856 228.526 148.78C227.845 150.688 227.291 152.238 226.901 153.331C226.717 153.856 226.572 154.269 226.466 154.571C226.423 154.702 226.388 154.81 226.359 154.898C226.345 154.896 226.33 154.9 226.318 154.908C226.306 154.916 226.298 154.929 226.295 154.943C226.291 154.957 226.293 154.972 226.301 154.985C226.308 154.997 226.319 155.007 226.333 155.012C226.347 155.016 226.362 155.016 226.375 155.01C226.389 155.004 226.4 154.994 226.406 154.981C226.412 154.967 226.413 154.953 226.408 154.939C226.404 154.925 226.395 154.913 226.382 154.906L226.513 154.589L226.99 153.364C227.399 152.298 227.984 150.754 228.686 148.837C229.388 146.92 230.209 144.632 231.061 142.071C231.913 139.51 232.806 136.676 233.546 133.646C233.911 132.13 234.231 130.635 234.337 129.157C234.427 127.742 234.386 126.322 234.213 124.915C234.061 123.639 233.798 122.378 233.427 121.147Z" fill="#1A2E35"/>
<path d="M254.955 106.181C254.919 106.289 254.871 106.431 254.811 106.609C254.685 107.001 254.506 107.556 254.277 108.262C253.813 109.698 253.156 111.781 252.262 114.326C251.369 116.87 250.235 119.88 248.668 123.082C247.852 124.757 246.947 126.388 245.955 127.966C244.923 129.608 243.725 131.221 242.426 132.82C239.824 136.012 237.121 138.872 234.867 141.653C232.603 144.422 230.805 147.123 229.613 149.556C228.408 151.985 227.802 154.111 227.521 155.594C227.241 157.078 227.238 157.921 227.238 157.921C227.253 157.872 227.262 157.821 227.266 157.769L227.326 157.322C227.367 156.93 227.464 156.35 227.612 155.612C227.919 154.141 228.546 152.036 229.764 149.631C230.969 147.221 232.77 144.544 235.037 141.79C237.294 139.025 240.001 136.171 242.611 132.969C243.911 131.365 245.117 129.741 246.151 128.09C247.146 126.503 248.051 124.863 248.865 123.177C250.427 119.958 251.542 116.932 252.421 114.381C253.3 111.829 253.929 109.735 254.365 108.29C254.576 107.577 254.74 107.019 254.857 106.623C254.908 106.442 254.948 106.297 254.979 106.188C254.996 106.139 255.007 106.088 255.012 106.037C254.989 106.083 254.97 106.131 254.955 106.181Z" fill="#1A2E35"/>
<path d="M162.768 17.6973H29.3304C28.6979 17.6973 28.0715 17.8213 27.4872 18.0622C26.9028 18.3031 26.3719 18.6563 25.9247 19.1015C25.4775 19.5467 25.1228 20.0751 24.8809 20.6568C24.6389 21.2384 24.5145 21.8618 24.5146 22.4913V117.489C24.5146 118.761 25.022 119.98 25.9251 120.878C26.8283 121.777 28.0532 122.282 29.3304 122.282H162.768C164.046 122.282 165.271 121.777 166.174 120.878C167.077 119.98 167.585 118.761 167.585 117.489V22.4913C167.585 21.8617 167.46 21.2384 167.218 20.6567C166.976 20.0751 166.622 19.5466 166.174 19.1014C165.727 18.6563 165.196 18.3031 164.612 18.0622C164.027 17.8213 163.401 17.6973 162.768 17.6973Z" fill="#9284DB"/>
<g opacity="0.45">
<path d="M24.5146 56.0518V117.489C24.5146 118.761 25.022 119.98 25.9251 120.878C26.8283 121.777 28.0532 122.282 29.3304 122.282H30.0747C52.2222 97.1454 105.282 39.4993 125.387 17.6973H64.4524L24.5146 56.0518Z" fill="#CCC4F6"/>
<path d="M162.768 122.282C164.046 122.282 165.271 121.777 166.174 120.878C167.077 119.98 167.585 118.761 167.585 117.489V63.5332L106.412 122.282H162.768Z" fill="#CCC4F6"/>
</g>
<path d="M162.768 17.6973H29.3304C28.6979 17.6973 28.0715 17.8213 27.4872 18.0622C26.9028 18.3031 26.3719 18.6563 25.9247 19.1015C25.4775 19.5467 25.1228 20.0751 24.8809 20.6568C24.6389 21.2384 24.5145 21.8618 24.5146 22.4913V27.3858H167.585V22.4913C167.585 21.8617 167.46 21.2384 167.218 20.6567C166.976 20.0751 166.622 19.5466 166.174 19.1014C165.727 18.6563 165.196 18.3031 164.612 18.0622C164.027 17.8213 163.401 17.6973 162.768 17.6973Z" fill="#2F265B"/>
<path d="M144.357 23.9479C144.915 23.3931 144.915 22.4936 144.357 21.9388C143.8 21.3839 142.896 21.3839 142.338 21.9388C141.781 22.4936 141.781 23.3931 142.338 23.948C142.896 24.5028 143.8 24.5028 144.357 23.9479Z" fill="white"/>
<path d="M150.535 24.3317C151.303 24.1514 151.778 23.3862 151.597 22.6226C151.416 21.8589 150.647 21.386 149.88 21.5662C149.112 21.7465 148.637 22.5116 148.818 23.2753C148.999 24.039 149.768 24.5119 150.535 24.3317Z" fill="white"/>
<path d="M156.761 24.3629C157.55 24.3629 158.189 23.7268 158.189 22.9422C158.189 22.1576 157.55 21.5215 156.761 21.5215C155.973 21.5215 155.334 22.1576 155.334 22.9422C155.334 23.7268 155.973 24.3629 156.761 24.3629Z" fill="white"/>
<path d="M69.3115 53.4844H58.6748L44.7332 85.9062V93.6656H60.7214V106.751H69.3115V93.663H74.7961V86.4282H69.3115V53.4844ZM60.7214 86.4282H52.3935L60.7214 63.2812V86.4282Z" fill="#B91F1F"/>
<path d="M101.458 54.8009C99.4099 53.4862 96.778 52.8286 93.5627 52.8281C90.3474 52.8277 87.7152 53.4853 85.6663 54.8009C83.6182 56.1166 82.0984 57.9469 81.1069 60.2919C80.1154 62.6369 79.6199 65.3659 79.6204 68.4788V92.0865C79.6204 95.1111 80.138 97.7853 81.1732 100.109C82.2083 102.433 83.7502 104.252 85.7987 105.567C87.8473 106.882 90.4352 107.54 93.5627 107.539C96.6901 107.539 99.2778 106.882 101.326 105.567C103.374 104.252 104.916 102.432 105.952 100.109C106.987 97.7857 107.504 95.1116 107.504 92.0865V68.4788C107.504 65.3663 107.009 62.6373 106.018 60.2919C105.027 57.9465 103.507 56.1161 101.458 54.8009ZM98.2538 91.9547C98.2516 93.1241 98.1419 94.2908 97.9259 95.4402C97.7052 96.6236 97.2647 97.6319 96.6046 98.465C95.9445 99.2982 94.9314 99.7148 93.5653 99.7148C92.2433 99.7148 91.2521 99.2982 90.5915 98.465C89.931 97.6319 89.4794 96.6236 89.2368 95.4402C88.9985 94.2935 88.8768 93.1257 88.8735 91.9547V68.6138C88.873 67.3912 88.9726 66.1705 89.1712 64.9639C89.3692 63.7592 89.7987 62.74 90.4597 61.9064C91.1207 61.0728 92.1559 60.6563 93.5653 60.6567C94.9747 60.6567 96.0099 61.0733 96.6709 61.9064C97.3318 62.7396 97.7613 63.7587 97.9594 64.9639C98.1574 66.1705 98.2568 67.3912 98.2564 68.6138L98.2538 91.9547Z" fill="#B91F1F"/>
<path d="M137.902 53.4844H127.26L113.319 85.9062V93.6656H129.312V106.751H137.902V93.663H143.386V86.4282H137.902V53.4844ZM129.312 86.4282H120.984L129.312 63.2812V86.4282Z" fill="#B91F1F"/>
<path d="M73.297 53.4844H62.659L48.7167 85.9062V93.6656H64.7075V106.751H73.2977V93.663H78.7816V86.4282H73.2977L73.297 53.4844ZM64.7068 86.4296H56.379L64.7068 63.2825V86.4296Z" fill="#E84B4B"/>
<path d="M105.443 54.8009C103.394 53.4862 100.762 52.8286 97.5462 52.8281C94.3305 52.8277 91.6986 53.4853 89.6505 54.8009C87.602 56.1166 86.0822 57.9469 85.0912 60.2919C84.1001 62.6369 83.6053 65.3659 83.6066 68.4788V92.0865C83.6066 95.1111 84.1242 97.7853 85.1594 100.109C86.1946 102.433 87.7364 104.252 89.7849 105.567C91.833 106.882 94.4208 107.54 97.5482 107.539C100.676 107.539 103.264 106.882 105.312 105.567C107.361 104.252 108.903 102.432 109.938 100.109C110.973 97.7857 111.491 95.1116 111.491 92.0865V68.4788C111.491 65.3663 110.995 62.6373 110.004 60.2919C109.013 57.9465 107.492 56.1161 105.443 54.8009ZM102.238 91.9547C102.236 93.1241 102.126 94.2908 101.91 95.4402C101.689 96.6236 101.249 97.6319 100.589 98.465C99.9288 99.2982 98.9154 99.7148 97.5489 99.7148C96.2278 99.7148 95.2367 99.2982 94.5758 98.465C93.9148 97.6319 93.4632 96.6236 93.221 95.4402C92.9824 94.2935 92.8607 93.1258 92.8577 91.9547V68.6138C92.8573 67.3912 92.9568 66.1705 93.1554 64.9639C93.3535 63.7592 93.7827 62.74 94.4433 61.9064C95.1038 61.0728 96.139 60.6563 97.5489 60.6567C98.9587 60.6567 99.9939 61.0733 100.654 61.9064C101.315 62.7396 101.744 63.7587 101.943 64.9639C102.142 66.1705 102.241 67.3912 102.241 68.6138L102.238 91.9547Z" fill="#E84B4B"/>
<path d="M141.883 53.4844H131.245L117.303 85.9062V93.6656H133.293V106.751H141.883V93.663H147.367V86.4282H141.883L141.883 53.4844ZM133.292 86.4296H124.965L133.292 63.2825V86.4296Z" fill="#E84B4B"/>
<path d="M59.764 46.5391H58.9587L59.661 47.2687L59.764 47.1688V46.5391Z" fill="black"/>
<path d="M58.9587 44.7018H59.764V43.8828L58.9587 44.7018Z" fill="black"/>
<path d="M59.764 47.1699L59.661 47.2698L59.764 47.3768V47.1699Z" fill="black"/>
<path d="M62.3607 43.5781C61.9384 43.3924 61.4381 43.2993 60.8597 43.2988H57.9745V49.5997H59.7653V47.9525H58.9601L59.6624 47.2692L58.9601 46.5396H59.7653V44.7032H58.9601L59.7653 43.8842V44.7032H60.7489C61.1227 44.7032 61.4031 44.7857 61.5902 44.9506C61.6837 45.0349 61.7573 45.1388 61.8057 45.2548C61.8541 45.3708 61.8761 45.496 61.8702 45.6214C61.8702 45.9151 61.7771 46.1435 61.5902 46.3008C61.4033 46.4581 61.1227 46.5396 60.7489 46.5396H59.7653V47.9525H60.8597C61.4381 47.9525 61.9384 47.8581 62.3607 47.6693C62.7564 47.5021 63.0944 47.2236 63.3332 46.8679C63.5596 46.5229 63.6726 46.1074 63.6722 45.6214C63.683 45.1841 63.5652 44.7531 63.3332 44.3815C63.097 44.023 62.7582 43.7432 62.3607 43.5781Z" fill="black"/>
<path d="M59.661 47.2695L58.9587 47.9528H59.764V47.3766L59.661 47.2695Z" fill="black"/>
<path d="M66.7732 44.1699L67.126 45.0451L67.4788 44.1699H66.7732Z" fill="black"/>
<path d="M66.2576 43.2988L63.4629 49.5997H65.2898L65.7868 48.3663H64.9914L65.4524 47.0617H66.3134L67.1258 45.0471L66.7731 44.172H67.4786L67.1258 45.0471L67.9383 47.0617H68.5455L69.0071 48.3663H68.4642L68.9612 49.5997H70.8249L68.0209 43.2988H66.2576Z" fill="black"/>
<path d="M65.4524 47.0625L64.9915 48.367H65.7869L66.3134 47.0625H65.4524Z" fill="black"/>
<path d="M66.3135 47.0625L65.787 48.367H68.4644L67.9385 47.0625H66.3135Z" fill="black"/>
<path d="M68.5454 47.0625H67.9382L68.4641 48.367H69.0071L68.5454 47.0625Z" fill="black"/>
<path d="M77.0648 48.9249V46.3145H75.4753V48.0465C75.6872 47.9475 75.8855 47.8221 76.0655 47.6732L77.0648 48.9249Z" fill="black"/>
<path d="M77.0649 48.9255L76.061 47.6738C75.881 47.8227 75.6827 47.9482 75.4708 48.0471V48.6997L77.0649 48.9255Z" fill="black"/>
<path d="M73.2215 45.1408C73.3822 44.979 73.5768 44.8544 73.7914 44.776C74.0289 44.6897 74.2802 44.647 74.533 44.65C74.8208 44.6461 75.1061 44.7045 75.3691 44.821C75.6369 44.9482 75.8756 45.1291 76.07 45.3522L77.2097 44.3263C76.897 43.9505 76.4964 43.6568 76.0432 43.4708C75.078 43.0959 74.0103 43.0753 73.0314 43.4127C72.6189 43.5627 72.2402 43.792 71.9166 44.0875C71.5999 44.3783 71.3487 44.7326 71.1796 45.1271C70.8298 45.9748 70.8298 46.9256 71.1796 47.7734C71.3482 48.1669 71.5977 48.5211 71.912 48.813C72.2317 49.1078 72.6064 49.3373 73.015 49.4884C73.4609 49.6512 73.9328 49.7319 74.4078 49.7266C74.8811 49.7243 75.3516 49.6546 75.8051 49.5197C76.2557 49.3922 76.682 49.1916 77.0668 48.9259L75.4753 48.7007V48.0481C75.4163 48.0753 75.3558 48.0995 75.2943 48.1205C75.0443 48.2072 74.7814 48.2513 74.5166 48.2511C74.2678 48.2543 74.0207 48.21 73.7887 48.1205C73.5763 48.0386 73.3837 47.913 73.2235 47.7518C73.0634 47.5882 72.9386 47.3936 72.8569 47.1801C72.7677 46.9475 72.7232 46.7002 72.7258 46.4512C72.7226 46.1992 72.7671 45.9488 72.8569 45.7131C72.938 45.4996 73.062 45.3048 73.2215 45.1408Z" fill="black"/>
<path d="M82.7895 45.7383H79.9771V47.0611H82.7895V45.7383Z" fill="black"/>
<path d="M79.977 45.7383H79.8505V47.0611H79.977V45.7383Z" fill="black"/>
<path d="M79.977 47.0617H79.8505V45.7382H79.977V44.6849H83.1698V43.2988H78.2137V49.5997H83.2872V48.2136H79.977V47.0617Z" fill="black"/>
<path d="M91.8793 47.4935L91.1829 46.6543V47.4935H91.8793Z" fill="black"/>
<path d="M87.9718 45.4043L88.6682 46.2409V45.4043H87.9718Z" fill="black"/>
<path d="M91.183 46.6545L91.8794 47.4937H91.183V46.6545L88.3974 43.2988H86.9233V49.5997H88.6683V46.242L87.9719 45.4054H88.6683V46.242L91.463 49.5997H92.9371V43.2988H91.183V46.6545Z" fill="black"/>
<path d="M99.9102 44.1012C99.5877 43.802 99.2088 43.5696 98.7954 43.4172C97.8892 43.0927 96.8977 43.0927 95.9915 43.4172C95.5828 43.5676 95.2086 43.798 94.891 44.0948C94.5734 44.3917 94.3188 44.7489 94.1423 45.1453C93.9617 45.5535 93.8707 45.9954 93.8754 46.4414C93.8704 46.8918 93.9614 47.3382 94.1423 47.7512C94.3178 48.1496 94.5725 48.5085 94.8911 48.8063C95.2097 49.104 95.5856 49.3345 95.9961 49.4838C96.9009 49.8075 97.8907 49.8075 98.7954 49.4838C99.2081 49.33 99.5867 49.0977 99.9102 48.7999C100.225 48.5076 100.476 48.1537 100.647 47.7603C100.826 47.3435 100.915 46.8944 100.91 46.4414C100.915 45.9924 100.824 45.5475 100.643 45.1362C100.47 44.7461 100.221 44.3943 99.9102 44.1012ZM98.9745 47.1932C98.8918 47.4038 98.7689 47.5964 98.6125 47.7603C98.4593 47.9184 98.2743 48.0425 98.0695 48.1244C97.6362 48.2924 97.1553 48.2924 96.722 48.1244C96.5165 48.0418 96.3303 47.9178 96.1751 47.7603C96.0165 47.5981 95.8933 47.405 95.8131 47.1932C95.6444 46.7123 95.6444 46.1887 95.8131 45.7079C95.8932 45.496 96.0164 45.3029 96.1751 45.1408C96.3301 44.9828 96.5163 44.8586 96.722 44.776C97.1553 44.608 97.6362 44.608 98.0695 44.776C98.2745 44.8578 98.4596 44.9822 98.6125 45.1408C98.769 45.3046 98.892 45.4972 98.9745 45.7079C99.1493 46.1877 99.1493 46.7134 98.9745 47.1932Z" fill="black"/>
<path d="M101.167 44.7124H103.112V49.5997H104.903V44.7124H106.838V43.2988H101.167V44.7124Z" fill="black"/>
<path d="M114.725 46.0625H111.939V47.4395H114.725V46.0625Z" fill="black"/>
<path d="M110.148 49.5997H111.939V47.4396H111.803V46.0626H111.939V44.6849H115.104V43.2988H110.148V49.5997Z" fill="black"/>
<path d="M111.939 46.0625H111.803V47.4395H111.939V46.0625Z" fill="black"/>
<path d="M121.598 44.1012C121.276 43.802 120.897 43.5695 120.483 43.4172C119.577 43.0927 118.586 43.0927 117.68 43.4172C117.271 43.5674 116.897 43.7978 116.579 44.0946C116.261 44.3915 116.007 44.7488 115.83 45.1453C115.65 45.5536 115.559 45.9954 115.563 46.4414C115.559 46.8918 115.65 47.3382 115.83 47.7512C116.006 48.1497 116.26 48.5087 116.579 48.8065C116.898 49.1043 117.274 49.3347 117.685 49.4838C118.589 49.8075 119.579 49.8075 120.483 49.4838C120.896 49.3301 121.275 49.0978 121.598 48.7999C121.913 48.5074 122.164 48.1536 122.335 47.7603C122.513 47.3435 122.603 46.8944 122.597 46.4414C122.602 45.9924 122.511 45.5475 122.331 45.1362C122.158 44.7463 121.909 44.3944 121.598 44.1012ZM120.662 47.1932C120.579 47.4038 120.457 47.5965 120.3 47.7603C120.147 47.9183 119.962 48.0424 119.757 48.1244C119.324 48.2924 118.843 48.2924 118.41 48.1244C118.204 48.0418 118.018 47.9178 117.863 47.7603C117.704 47.5982 117.581 47.4051 117.501 47.1932C117.332 46.7123 117.332 46.1887 117.501 45.7079C117.581 45.4959 117.704 45.3028 117.863 45.1408C118.018 44.9828 118.204 44.8586 118.41 44.776C118.843 44.6081 119.324 44.6081 119.757 44.776C119.962 44.858 120.147 44.9823 120.3 45.1408C120.457 45.3045 120.58 45.4971 120.662 45.7079C120.836 46.1877 120.836 46.7134 120.662 47.1932Z" fill="black"/>
<path d="M127.666 46.7465C127.666 47.2803 127.562 47.6643 127.354 47.8983C127.146 48.1324 126.855 48.2494 126.481 48.2494C126.108 48.2494 125.815 48.1324 125.605 47.8983C125.394 47.6643 125.288 47.2803 125.288 46.7465V43.2988H123.497V46.8007C123.497 47.7308 123.758 48.4509 124.279 48.9608C124.801 49.4707 125.529 49.7256 126.464 49.7256C127.392 49.7256 128.12 49.4707 128.648 48.9608C129.176 48.4509 129.439 47.7308 129.439 46.8007V43.2988H127.669L127.666 46.7465Z" fill="black"/>
<path d="M135.616 47.4935L134.92 46.6543V47.4935H135.616Z" fill="black"/>
<path d="M131.709 45.4043L132.405 46.2409V45.4043H131.709Z" fill="black"/>
<path d="M134.92 46.6545L135.616 47.4937H134.92V46.6545L132.134 43.2988H130.66V49.5997H132.405V46.242L131.709 45.4054H132.405V46.242L135.2 49.5997H136.674V43.2988H134.92V46.6545Z" fill="black"/>
<path d="M142.779 43.6839C142.248 43.4259 141.636 43.2969 140.943 43.2969H137.949V49.5977H140.943C141.637 49.5977 142.249 49.4687 142.779 49.2107C143.29 48.9712 143.722 48.5918 144.025 48.117C144.324 47.6458 144.473 47.0863 144.473 46.4385C144.472 45.7907 144.323 45.2355 144.025 44.7731C143.721 44.3005 143.289 43.923 142.779 43.6839ZM142.435 47.3697C142.289 47.6263 142.07 47.8346 141.807 47.9688C141.51 48.113 141.183 48.184 140.852 48.1757H139.738V44.7169H140.852C141.183 44.7083 141.51 44.7793 141.807 44.9238C142.068 45.0555 142.287 45.2594 142.435 45.5111C142.584 45.7978 142.661 46.1156 142.661 46.4382C142.661 46.7607 142.584 47.0785 142.435 47.3652V47.3697Z" fill="black"/>
<path d="M246.104 156.666H8.85901V159.717H246.104V156.666Z" fill="#992E2E"/>
<path d="M166.251 154.526C164.021 154.422 144.892 153.286 144.892 153.286L134.265 113.661C134.123 113.132 133.809 112.663 133.372 112.329C132.936 111.996 132.4 111.814 131.849 111.814H76.3162C75.9671 111.816 75.6226 111.894 75.3075 112.043C74.9924 112.193 74.7143 112.41 74.4934 112.679C74.2725 112.948 74.1141 113.262 74.0296 113.599C73.9451 113.936 73.9366 114.288 74.0047 114.628L80.6034 150.093L81.2441 153.534C81.4028 154.389 81.8575 155.162 82.529 155.718C83.2005 156.274 84.0466 156.578 84.9201 156.578H168.93C168.93 156.578 168.477 154.63 166.251 154.526Z" fill="#5440BE"/>
<path d="M76.3161 111.811C75.967 111.813 75.6225 111.891 75.3074 112.04C74.9922 112.19 74.7142 112.407 74.4933 112.676C74.2723 112.944 74.1139 113.259 74.0295 113.596C73.945 113.933 73.9365 114.284 74.0046 114.625L80.6033 150.089C84.5128 149.545 91.5777 147.754 101.265 142.062C112.72 135.332 112.165 119.488 111.129 111.811L76.3161 111.811Z" fill="#654DE4"/>
<path d="M131.849 111.811H130.256C130.707 112.502 131.24 113.584 131.771 115.269C133.111 119.511 142.077 153.281 142.077 153.281H144.892L134.265 113.656C134.123 113.127 133.809 112.659 133.372 112.325C132.935 111.991 132.4 111.81 131.849 111.811Z" fill="#2F265B"/>
<path d="M107.695 142.608C111.052 142.075 113.227 138.236 112.553 134.034C111.879 129.833 108.611 126.859 105.255 127.392C101.898 127.925 99.7231 131.764 100.397 135.966C101.071 140.168 104.339 143.142 107.695 142.608Z" fill="#2F265B"/>
<path d="M228.066 72.3668C228.978 70.6217 228.759 67.6426 227.462 66.1097C226.321 64.7607 225.5 64.4664 223.686 63.3576C223.358 63.156 223.485 54.9724 222.431 54.0907C222.426 54.0699 222.418 54.0509 222.414 54.0307C223.409 53.8349 224.53 53.6176 225.383 52.8991C227.547 51.0718 229.325 47.4532 227.67 44.6287C226.014 41.8043 223.079 40.5252 219.386 42.6709C218.487 43.1896 217.677 43.8484 216.988 44.6222C214.637 42.4621 211.508 41.0218 207.988 40.734L202.623 40.2961C201.934 40.2399 201.241 40.3486 200.602 40.6133C199.97 40.3384 199.289 40.1918 198.6 40.1821C197.91 40.1725 197.226 40.3 196.586 40.5571C189.734 43.347 186.098 49.9728 189.649 53.8552C190.812 53.0368 192.262 52.4971 193.715 52.0207C192.658 54.2944 191.554 59.8088 191.252 59.9171C189.25 60.635 188.386 60.7597 186.995 61.8515C185.414 63.0914 184.592 65.9628 185.131 67.8554C185.292 68.4179 185.59 68.9563 185.684 69.5345C185.815 70.375 185.356 71.0968 184.816 71.7116C184.706 71.8369 184.602 71.9674 184.504 72.1031C184.11 72.6422 183.819 73.2524 183.717 73.9063C183.57 74.831 183.841 75.8464 184.553 76.503C185.266 77.1595 186.275 77.3794 187.242 77.5471C187.28 77.5536 187.388 77.566 187.557 77.5843C188.944 77.7357 194.5 78.265 200.812 78.836C203.535 79.0827 207.923 79.6713 210.489 79.9617C213.833 80.3389 216.967 80.6861 219.378 80.9472C222.063 81.2389 223.852 81.4249 224.04 81.4314C225.018 81.4647 226.059 81.4503 226.883 80.9537C227.706 80.4571 228.186 79.518 228.23 78.5789C228.262 77.9178 228.099 77.2619 227.824 76.655C227.758 76.503 227.679 76.3548 227.597 76.2093C227.197 75.4986 226.89 74.6992 227.191 73.9024C227.391 73.3516 227.795 72.8849 228.066 72.3668Z" fill="#52261F"/>
<path d="M218.461 67.2508C218.55 63.3222 218.949 53.3224 211.51 50.6878C204.071 48.0533 193.204 58.9928 192.297 64.7018C191.619 68.9841 186.083 69.3913 187.549 77.5815C188.936 77.7329 194.492 78.2621 200.804 78.8331C203.527 79.0798 207.915 79.6685 210.481 79.9589C213.826 80.3361 216.959 80.6833 219.37 80.9443C219.981 80.6735 220.457 80.3413 220.771 79.9406C224.755 74.8582 218.372 71.1788 218.461 67.2508Z" fill="#261B26"/>
<path d="M176.971 144.752L175.205 156.873L224.127 156.666L220.329 140.186L176.971 144.752Z" fill="#5360A6"/>
<path d="M192.508 81.5636C191.987 81.4209 191.451 81.3437 190.912 81.3338C189.31 81.2979 187.483 81.7946 185.57 82.9588C182.536 84.7959 179.34 88.7154 177.102 92.1605C173.864 97.1411 170.432 101.675 167.258 106.206C166.326 107.535 165.42 108.868 164.54 110.205C158.319 104.839 151.676 98.4959 145.428 92.4202L137.428 98.6969C143.241 106.475 149.165 113.93 155.576 121.194C156.538 122.288 158.091 123.977 159.75 125.755C163.699 129.99 170.476 129.962 174.336 125.646C175.717 124.103 177.073 122.53 178.402 120.928C179.337 119.803 180.255 118.664 181.156 117.511C187.494 109.396 192.883 100.539 196.169 90.837C197.739 86.1898 195.898 82.5007 192.508 81.5636Z" fill="#F19A6D"/>
<path d="M166.833 111.628C166.15 111.06 165.428 110.537 164.538 110.207C164.997 111.035 165.622 111.67 166.287 112.259C166.969 112.829 167.691 113.353 168.582 113.681C168.125 112.851 167.5 112.216 166.833 111.628Z" fill="#FE8951"/>
<path d="M192.508 81.5636C191.991 81.4983 191.458 81.418 190.911 81.3338C189.31 81.2979 187.483 81.7946 185.57 82.9588C182.536 84.7959 179.34 88.7154 177.102 92.1605C173.864 97.1411 170.431 101.675 167.258 106.206L182.696 114.438C189.034 106.322 192.879 100.537 196.165 90.837C197.739 86.1898 195.898 82.5007 192.508 81.5636Z" fill="#322672"/>
<path d="M210.328 82.1704L210.989 63.6281L197.851 63.1641L197.244 80.1839C194.816 80.0387 192.382 80.0217 189.951 80.1329C188.27 80.2102 186.643 80.7524 185.254 81.6987C183.865 82.645 182.768 83.958 182.087 85.4901C177.949 94.8223 180.385 104.931 180.385 104.931L183.416 126.821L210.113 136.05C210.113 136.05 216.129 117.908 219.431 110.498C222.732 103.089 220.841 85.712 220.841 85.712C217.441 84.2447 213.924 83.0601 210.328 82.1704Z" fill="#F19A6D"/>
<path d="M206.732 72.0267C204.896 73.7124 203.104 74.6371 201.535 75.1129C199.794 75.6532 198.334 75.6441 197.41 75.5449L197.323 77.9908C198.63 78.0818 199.942 77.9268 201.191 77.534C202.759 77.0543 204.551 76.1335 206.388 74.4479C208.181 72.8033 209.675 70.1407 210.86 67.2151L210.925 65.4668C209.784 68.1229 208.386 70.5107 206.732 72.0267Z" fill="#FE8951"/>
<path d="M220.711 106.949L220.99 105.947C220.844 105.988 220.694 106.011 220.542 106.018C217.816 106.192 209.538 103.212 209.045 101.254C208.617 99.5516 211.898 95.7796 211.327 93.951C211.294 93.8441 211.246 93.7424 211.185 93.6489C212.334 91.0946 211.784 85.0561 216.206 83.2451L211.189 81.7311C206.424 83.6817 203.728 88.4933 202.551 91.1559C198.698 92.127 193.43 95.9362 193.43 95.9362L187.058 89.0963C187.321 87.4329 185.471 83.9715 187.648 81.983C189.168 80.5936 191.141 79.9469 193.518 80.0513L197.244 80.1883L197.277 79.3556L193.553 79.2173C190.952 79.1005 188.772 79.8229 187.081 81.3709C184.5 83.7313 183.764 87.3324 183.555 88.9736C183.311 89.3241 183.058 89.6745 182.834 90.0243C180.014 94.4111 178.879 99.6626 179.443 104.838L182.17 122.259L175.104 146.521C186.487 156.027 201.016 146.386 209.874 146.502C212.679 146.539 223.559 147.09 223.559 147.09L220.207 134.801L220.711 106.949Z" fill="#654DE4"/>
<path d="M193.564 118.884C191.99 116.671 190.725 114.264 189.644 111.713C190.092 114.454 191.274 117.073 192.879 119.364C194.5 121.643 196.575 123.637 199.017 124.983C196.973 123.104 195.124 121.108 193.564 118.884Z" fill="#5440BE"/>
<path d="M181.941 81.8827C177.026 84.6302 167.532 101.384 167.532 101.384L172.028 104.417L179.847 109.693L181.536 110.833C180.46 104.466 186.357 90.0376 186.357 90.0376C190.209 81.8279 197.151 80.1834 197.151 80.1834C194.079 79.3304 186.856 79.1353 181.941 81.8827Z" fill="#654DE4"/>
<path d="M220.711 106.948C220.66 106.638 220.603 106.328 220.542 106.016C217.816 106.19 209.538 103.21 209.045 101.252C208.617 99.5498 211.898 95.7778 211.326 93.9492C208.971 97.098 206.263 101.636 206.039 106.076C205.639 114.044 208.602 123.686 209.323 128.147C209.902 131.737 209.808 143.337 209.874 146.502C212.679 146.539 223.559 147.089 223.559 147.089L220.206 134.801L220.711 106.948Z" fill="#322672"/>
<path d="M179.847 109.691C179.747 108.32 179.233 100.55 180.325 97.0394C181.505 93.2413 182.151 91.4923 182.17 91.4375L172.027 104.415L179.847 109.691Z" fill="#5440BE"/>
<path d="M210.271 90.0201C209.064 93.3484 209.047 98.3884 209.475 102.476C210.117 108.583 210.776 114.149 211.382 119.724L228.357 115.488C227.921 106.515 226.468 97.617 223.364 89.2272C220.698 82.0049 213.096 82.1889 210.271 90.0201Z" fill="#5440BE"/>
<path d="M202.576 51.432C200.577 47.3813 202.361 43.7966 202.955 42.7922L202.573 42.5684C201.95 43.619 200.081 47.3774 202.18 51.6264C203.95 55.2092 207.938 57.802 212.593 58.3926L212.649 57.9547C208.138 57.383 204.279 54.8836 202.576 51.432Z" fill="#52261F"/>
<path d="M209.405 43.4055C201.199 41.0516 195.515 45.3451 193.346 52.8343C193.346 52.8343 192.515 58.104 192.42 58.4995C192.408 58.5511 188.332 66.6446 194.668 74.9737C195.026 75.4443 195.609 75.644 196.199 75.8071C208.487 79.2006 210.398 66.9905 210.398 66.9905C210.67 66.4031 216.528 60.9011 216.713 60.2628C218.885 52.7736 217.611 45.7601 209.405 43.4055Z" fill="#F19A6D"/>
<path d="M203.792 42.579C197.829 42.9118 191.409 46.7008 190.757 52.5637L195.576 53.3064C195.576 53.3064 196.736 49.5422 198.283 47.9877L197.778 53.3136C197.778 53.3136 207.946 55.3542 212.197 57.0986C212.197 57.0986 208.778 64.5611 210.9 65.5824C210.9 65.5824 219.55 66.0784 218.87 55.1232C218.189 44.168 209.755 42.2487 203.792 42.579Z" fill="#52261F"/>
<path d="M206.592 57.1421C206.544 57.1056 205.883 57.2309 205.226 56.9183C204.387 56.5189 203.486 55.692 203.124 55.9824C202.867 56.1887 202.781 56.6631 202.933 57.0064C203.191 57.5878 203.976 57.4371 205.675 58.0975C206.471 58.4068 206.781 58.6274 206.871 58.521C207.027 58.3383 207.418 57.7751 206.592 57.1421Z" fill="#52261F"/>
<path d="M195.47 55.1704C194.898 55.2095 194.591 55.1332 194.057 55.2076C193.205 55.3257 193.471 55.6833 193.529 55.8719C193.562 55.9822 193.868 55.9163 194.572 55.9411C196.072 55.9953 196.615 56.3646 197.001 56.0064C197.229 55.7969 197.319 55.4105 197.193 55.171C197.016 54.8389 196.188 55.1214 195.47 55.1704Z" fill="#52261F"/>
<path d="M197.407 76.1141L197.296 80.1831C205.334 80.2483 207.925 72.7734 207.925 72.7734C204.319 77.2 197.407 76.1141 197.407 76.1141Z" fill="#EE6A4A"/>
<path d="M197.787 61.1701L197.518 60.8086C196.457 61.5917 195.954 62.3611 196.024 63.1012C196.116 64.067 197.148 64.5728 197.191 64.5937L197.388 64.1891C197.38 64.1845 196.54 63.7694 196.474 63.0574C196.422 62.4929 196.876 61.841 197.787 61.1701Z" fill="#38261F"/>
<path d="M214.191 61.5148C212.008 60.7904 209.584 62.1524 208.778 64.5585C207.972 66.9646 209.088 69.5019 211.27 70.227C213.452 70.952 215.877 69.5887 216.683 67.1833C217.489 64.7778 216.375 62.2398 214.191 61.5148Z" fill="#F19A6D"/>
<path d="M214.37 64.1151C214.062 63.9845 213.483 63.8136 212.834 64.0132C212.091 64.241 211.485 64.8773 211.033 65.9058C211.019 65.937 211.013 65.971 211.014 66.0051C211.016 66.0392 211.025 66.0725 211.041 66.1025C211.057 66.1325 211.08 66.1584 211.108 66.1783C211.136 66.1981 211.168 66.2114 211.202 66.2171C211.595 66.2823 212.617 66.5675 212.957 67.1124C212.984 67.1548 213.025 67.1869 213.073 67.2034C213.12 67.22 213.172 67.2201 213.22 67.2038C213.252 67.1924 213.282 67.1738 213.306 67.1494C213.33 67.1249 213.348 67.0954 213.359 67.0629C213.371 67.0304 213.374 66.9958 213.37 66.9618C213.365 66.9277 213.353 66.8951 213.334 66.8664C213.007 66.3535 212.318 66.0604 211.826 65.9097C211.794 65.9001 211.764 65.8833 211.739 65.8605C211.713 65.8377 211.694 65.8096 211.681 65.7782C211.669 65.7468 211.663 65.7129 211.666 65.6792C211.668 65.6455 211.678 65.6127 211.695 65.5834C212.047 64.9765 212.47 64.5934 212.957 64.4427C213.473 64.2828 213.948 64.4257 214.19 64.5288C214.239 64.5493 214.294 64.5516 214.345 64.5354C214.396 64.5191 214.44 64.4853 214.468 64.4401C214.485 64.4129 214.496 64.3824 214.501 64.3506C214.505 64.3188 214.503 64.2863 214.493 64.2555C214.484 64.2247 214.469 64.1962 214.447 64.172C214.426 64.1478 214.4 64.1283 214.37 64.1151Z" fill="#38261F"/>
<path d="M205.153 67.6097C205.042 68.6476 205.247 69.6949 205.741 70.6156C206.235 71.5363 206.996 72.288 207.925 72.7731C209.992 70.1268 210.482 67.0106 210.482 67.0106C210.896 65.0822 210.915 62.9847 210.915 62.9847C210.232 62.9118 209.541 62.9737 208.881 63.1666C208.222 63.3596 207.607 63.68 207.072 64.1095C206.537 64.539 206.092 65.0691 205.763 65.6697C205.434 66.2703 205.227 66.9295 205.153 67.6097Z" fill="#EF7C59"/>
<path d="M191.803 60.1582C190.977 62.9195 190.902 65.8493 191.584 68.6492C192.279 68.1864 192.852 67.5644 193.256 66.8355C193.659 66.1065 193.881 65.292 193.902 64.4601C193.924 63.6283 193.744 62.8034 193.379 62.0549C193.014 61.3063 192.473 60.6559 191.803 60.1582Z" fill="#EF7C59"/>
<path d="M204.375 59.8046C204.063 59.7087 203.675 60.0657 203.508 60.5976C203.342 61.1294 203.462 61.6417 203.774 61.7396C204.087 61.8375 204.475 61.4786 204.641 60.9467C204.807 60.4148 204.689 59.9025 204.375 59.8046Z" fill="#38261F"/>
<path d="M195.159 58.2584C194.874 58.171 194.52 58.4947 194.372 58.9815C194.224 59.4683 194.329 59.9343 194.614 60.0217C194.899 60.1092 195.253 59.7861 195.401 59.2993C195.549 58.8125 195.444 58.3465 195.159 58.2584Z" fill="#38261F"/>
<path d="M212.069 45.5626C208.826 43.8221 205.071 43.6094 205.371 43.7073C208.262 44.6516 210.117 45.9496 210.036 46.2093C209.943 46.5095 203.29 44.6274 203.178 44.9792C203.118 45.1697 205.127 45.5828 207.511 47.168C210.121 48.9026 211.774 51.1064 212.191 50.8036C212.412 50.6431 212.03 49.9553 212.252 49.8104C212.757 49.4756 215.312 52.6231 215.679 52.3555C215.882 52.208 215.193 51.1717 215.468 50.9237C215.866 50.5635 217.757 52.3594 217.986 52.1467C218.283 51.8719 216.221 47.7899 212.069 45.5626Z" fill="#814530"/>
<path d="M200.207 67.8816C200.116 67.8352 200.018 67.8033 199.917 67.7869C199.727 67.7719 199.536 67.7719 199.346 67.7869C198.312 67.8524 197.274 67.7174 196.292 67.3895C195.944 67.2655 195.598 67.1872 195.304 67.1937C195.01 67.2003 194.754 67.2838 194.589 67.5031C194.252 67.9481 194.327 68.5551 194.578 69.0602C194.649 69.1979 194.732 69.3289 194.827 69.4517C195.449 70.2681 196.567 70.8111 197.671 70.7922C198.149 70.7833 198.618 70.672 199.048 70.4659C199.719 70.1396 200.252 69.5986 200.473 68.9564C200.604 68.587 200.59 68.1022 200.207 67.8816Z" fill="#383939"/>
<path d="M199.344 67.7889C198.31 67.8543 197.273 67.7194 196.29 67.3915C195.942 67.2675 195.596 67.1892 195.302 67.1957C195.28 67.4567 195.302 67.7178 195.45 67.9188C195.609 68.1446 195.873 68.2594 196.133 68.343C197.074 68.6665 198.075 68.7779 199.065 68.6693C199.299 68.6432 199.551 68.5949 199.717 68.4298C199.883 68.2646 199.919 68.0232 199.914 67.785C199.724 67.7714 199.534 67.7727 199.344 67.7889Z" fill="white"/>
<path d="M197.504 69.3816C196.632 69.1121 195.661 69.1081 194.827 69.4468C195.449 70.2632 196.567 70.8062 197.671 70.7873C198.149 70.7784 198.618 70.6671 199.049 70.461C198.736 69.9298 198.122 69.5676 197.504 69.3816Z" fill="#EE394A"/>
<path d="M216.998 83.443C212.736 81.8513 208.08 84.7978 206.483 92.4906C204.885 100.183 209.548 115.437 209.548 115.437L229.672 112.519C229.672 112.519 226.473 93.8167 224.608 89.8378C222.742 85.8589 221.263 85.0347 216.998 83.443Z" fill="#654DE4"/>
<path d="M112.918 15.4036C99.6991 20.614 93.2269 35.5037 98.4636 48.6594C103.7 61.8152 118.66 68.2557 131.88 63.0447C145.1 57.8337 151.571 42.9446 146.334 29.7882C141.098 16.6318 126.136 10.192 112.918 15.4036ZM141.719 47.381C139.778 51.8473 136.342 55.5058 131.995 57.7333C127.648 59.9608 122.66 60.6194 117.88 59.5969C113.1 58.5744 108.824 55.934 105.781 52.1257C102.737 48.3173 101.115 43.5767 101.19 38.7114C101.265 33.8462 103.033 29.1573 106.193 25.4438C109.352 21.7304 113.708 19.222 118.517 18.3461C123.326 17.4703 128.292 18.2811 132.568 20.6405C136.844 22.9998 140.166 26.7618 141.967 31.2853C142.997 33.8512 143.505 36.5948 143.462 39.3574C143.419 42.12 142.826 44.8467 141.717 47.3797L141.719 47.381Z" fill="#C5C7C6"/>
<path d="M128.936 63.4342L132.008 71.1519L137.556 68.965L134.596 61.5254C132.764 62.3222 130.896 63.0492 128.936 63.4342Z" fill="#C5C7C6"/>
<path d="M128.936 63.4316L128.95 63.4642C130.431 63.6906 132.525 63.7252 135.223 63.0987L134.596 61.524C134.452 61.0998 128.792 63.0074 128.936 63.4316Z" fill="#8C9B9E"/>
<path d="M148.721 92.6953L142.969 78.173L142.707 77.508L140.237 71.2757L140.005 70.6929L139.987 70.6453L139.568 69.5913L138.927 67.9801L138.507 66.9281L138.125 65.9687C137.88 65.3527 136.502 65.4506 134.918 65.9035C134.774 65.9446 134.628 65.9877 134.48 66.034C134.435 66.0484 134.39 66.0621 134.344 66.0777C131.869 66.8837 129.164 68.4101 129.54 69.3538L129.913 70.2903L130.331 71.3344L130.975 72.9522L131.132 73.3477L131.299 73.7673L131.391 74.0009L133.204 78.558L133.379 78.9953L135.022 83.1262L135.198 83.5667L137.821 90.158L137.995 90.5939L140.432 96.7225L140.6 97.1434L142.012 100.696L142.182 101.116L144.58 107.145C147.142 107.659 149.039 107.105 150.37 106.309C152.128 105.257 152.896 103.782 152.896 103.782C152.946 103.727 152.999 103.674 153.054 103.624L148.893 93.1214L148.721 92.6953Z" fill="#161310"/>
<path d="M112.321 13.6223C99.1016 18.8326 92.6295 33.7223 97.8662 46.8781C103.103 60.0338 118.063 66.4743 131.283 61.264C144.502 56.0536 150.972 41.1639 145.737 28.0075C140.502 14.8511 125.54 8.41061 112.321 13.6223ZM141.121 45.5996C139.18 50.0654 135.743 53.7231 131.396 55.9496C127.048 58.1761 122.06 58.8336 117.28 57.81C112.5 56.7865 108.225 54.1452 105.183 50.3363C102.14 46.5274 100.519 41.7865 100.595 36.9213C100.671 32.0561 102.44 27.3677 105.6 23.6549C108.76 19.942 113.116 17.4345 117.925 16.5595C122.735 15.6846 127.7 16.4963 131.976 18.8563C136.251 21.2164 139.572 24.9789 141.373 29.5026C142.403 32.0689 142.911 34.8129 142.868 37.5759C142.824 40.3389 142.231 43.0659 141.121 45.599V45.5996Z" fill="white"/>
<g opacity="0.4">
<path d="M141.372 29.5035C139.96 25.9449 137.599 22.8373 134.544 20.5155C131.488 18.1936 127.854 16.7455 124.033 16.3272C120.211 15.9089 116.348 16.5363 112.858 18.1417C109.368 19.7471 106.385 22.2698 104.229 25.4378C102.796 27.5562 101.755 29.9129 101.155 32.3965C100.918 33.3777 100.754 34.3749 100.664 35.3801C100.393 38.378 100.776 41.3987 101.788 44.2353C101.878 44.4911 101.974 44.7443 102.075 44.9975C104.079 50.0334 107.957 54.1059 112.902 56.367C117.848 58.6281 123.479 58.9035 128.624 57.1358C128.919 57.0336 129.214 56.9248 129.507 56.8095C131.118 56.176 132.646 55.3489 134.056 54.3466C136.074 52.91 137.82 51.1266 139.209 49.0802C141.22 46.1182 142.45 42.7002 142.784 39.1411C143.032 36.4134 142.738 33.6638 141.92 31.0488C141.758 30.5285 141.575 30.0134 141.372 29.5035Z" fill="white"/>
</g>
<path d="M141.82 30.7324C141.684 30.3195 141.535 29.9088 141.373 29.5003C141.223 29.1218 141.062 28.7492 140.891 28.3824C140.754 28.0892 140.611 27.7998 140.463 27.5144C140.092 26.8053 139.682 26.1175 139.234 25.4542C139.189 25.3889 139.144 25.3237 139.098 25.2584C138.917 24.9974 138.73 24.7363 138.538 24.4877C138.489 24.4224 138.441 24.3617 138.392 24.2991C138.245 24.112 138.095 23.9271 137.942 23.7444C137.892 23.6837 137.839 23.623 137.788 23.5623C137.581 23.3221 137.369 23.0865 137.152 22.8555C137.044 22.74 136.933 22.6258 136.824 22.5129C136.715 22.4 136.6 22.2884 136.487 22.1781C136.43 22.1233 136.371 22.0685 136.315 22.0137C135.969 21.6869 135.612 21.3715 135.245 21.0674C135.06 20.916 134.874 20.7674 134.685 20.6217C134.559 20.5244 134.432 20.4259 134.303 20.3345C134.174 20.2432 134.041 20.1479 133.91 20.0559C133.778 19.9639 133.647 19.8745 133.516 19.7857C132.441 19.0708 131.302 18.4544 130.115 17.9441C127.568 16.8473 124.828 16.2606 122.053 16.2174C119.279 16.1742 116.522 16.6755 113.942 17.6924C111.362 18.7094 109.008 20.2223 107.015 22.1446C105.022 24.0669 103.429 26.361 102.327 28.896L102.223 29.1381C102.157 29.2999 102.092 29.4644 102.026 29.6243C101.93 29.8684 101.839 30.1135 101.754 30.3598C101.696 30.5242 101.641 30.6861 101.588 30.8544C101.456 31.2664 101.336 31.6813 101.228 32.0989C101.015 32.9297 100.854 33.7727 100.745 34.6232C100.723 34.7929 100.704 34.9619 100.686 35.1322C100.39 38.0415 100.711 40.9803 101.628 43.7583C101.655 43.8412 101.683 43.924 101.711 44.0063C101.794 44.2543 101.883 44.5012 101.979 44.747C101.979 44.747 101.979 44.747 101.979 44.7509V44.7463C100.51 39.5574 101.099 34.0052 103.624 29.236C106.15 24.4667 110.419 20.8445 115.55 19.1171C120.681 17.3897 126.283 17.689 131.199 19.9532C136.115 22.2174 139.969 26.2736 141.967 31.2845C141.999 31.3648 142.033 31.445 142.061 31.5253C142.061 31.511 142.054 31.4966 142.05 31.4829C141.979 31.2303 141.902 30.9804 141.82 30.7324Z" fill="#C5C7C6"/>
<path d="M148.721 92.6953L142.969 78.173L142.707 77.508L140.237 71.2757L140.005 70.6929L139.987 70.6453L139.568 69.5913L138.927 67.9801L138.507 66.9281L138.125 65.9687C137.88 65.3527 136.502 65.4506 134.918 65.9035C134.774 65.9446 134.628 65.9877 134.48 66.034C134.435 66.0484 134.39 66.0621 134.344 66.0777C136.447 71.2333 144.645 91.3894 150.372 106.312C152.129 105.261 152.897 103.786 152.897 103.786C152.947 103.731 153 103.678 153.055 103.628L148.894 93.1254L148.721 92.6953Z" fill="#545454"/>
<g opacity="0.53">
<path d="M104.229 25.4367C102.796 27.5551 101.755 29.9118 101.155 32.3954C109.007 39.4089 121.155 50.3771 128.624 57.1289C128.919 57.0267 129.214 56.9179 129.507 56.8026C131.118 56.169 132.646 55.3419 134.056 54.3397C136.074 52.903 137.82 51.1196 139.209 49.0732C131.157 41.8796 116.989 29.1161 108.132 21.1289C106.635 22.3764 105.322 23.8265 104.229 25.4367Z" fill="white"/>
</g>
<path d="M144.628 93.646C147.039 91.8122 138.081 89.4993 137.06 89.5C129.499 98.2011 134.349 99.8111 136.052 101.418C140.38 101.719 144.368 102.044 143.387 99.366C145.187 99.1944 145.989 97.8741 144.052 96.6251C146.41 95.9594 146.586 94.3553 144.628 93.646Z" fill="#F19A6D"/>
<path d="M145.016 93.6081C145.309 93.2961 145.336 92.9998 145.296 92.791C144.952 90.9755 137.952 89.4138 137.152 89.2415C137.09 89.2287 137.024 89.2398 136.97 89.2727C136.915 89.3057 136.875 89.3579 136.857 89.419C136.848 89.4483 136.846 89.479 136.85 89.5092C136.854 89.5394 136.864 89.5685 136.88 89.5946C136.896 89.6207 136.917 89.6432 136.942 89.6607C136.967 89.6782 136.996 89.6904 137.026 89.6964C139.925 90.3222 144.605 91.7442 144.822 92.8941C144.835 92.9633 144.875 93.1728 144.488 93.4606L144.211 93.6662L144.491 93.8404C144.9 94.0956 145.858 94.692 145.769 95.2311C145.723 95.5071 145.376 95.9326 143.984 96.4012L143.573 96.5382L143.891 96.7993C144.655 97.4303 144.99 97.9328 144.886 98.2931C144.787 98.6383 144.254 98.9287 143.343 99.1343L143.057 99.1995L143.163 99.456C143.336 99.8782 143.474 100.359 143.175 100.719C142.725 101.263 141.142 101.764 136.159 101.071C136.096 101.062 136.031 101.077 135.979 101.113C135.927 101.15 135.89 101.204 135.877 101.266C135.871 101.296 135.872 101.327 135.878 101.356C135.885 101.386 135.897 101.414 135.915 101.438C135.933 101.462 135.956 101.483 135.982 101.498C136.008 101.514 136.037 101.524 136.068 101.527C139.701 102.034 142.016 101.98 143.102 101.358C143.27 101.265 143.42 101.142 143.545 100.996C143.934 100.527 143.866 99.9833 143.708 99.5161C144.668 99.2609 145.206 98.8922 145.347 98.3942C145.525 97.7762 145.025 97.1634 144.512 96.6975C145.588 96.2857 146.154 95.8197 146.243 95.28C146.352 94.6281 145.749 94.089 145.016 93.6081Z" fill="#EE6A4A"/>
<path d="M144.675 93.4131C144.629 93.4072 140.119 92.7657 135.94 92.4499C135.877 92.4453 135.813 92.4649 135.764 92.5045C135.714 92.5442 135.68 92.6011 135.671 92.6639C135.667 92.6942 135.669 92.725 135.678 92.7543C135.686 92.7837 135.7 92.811 135.72 92.8345C135.74 92.858 135.764 92.8773 135.791 92.891C135.819 92.9048 135.849 92.9128 135.879 92.9145C140.041 93.2291 144.535 93.868 144.582 93.8738C144.645 93.8825 144.709 93.8672 144.761 93.8309C144.814 93.7947 144.85 93.7401 144.864 93.6781C144.87 93.6482 144.871 93.6173 144.864 93.5874C144.858 93.5574 144.846 93.5292 144.828 93.5043C144.81 93.4794 144.787 93.4584 144.761 93.4427C144.734 93.427 144.705 93.4169 144.675 93.4131Z" fill="#EE6A4A"/>
<path d="M144.092 96.3911C144.043 96.3853 139.163 95.8377 135.647 95.5963C135.583 95.592 135.52 95.6119 135.471 95.652C135.421 95.692 135.389 95.7493 135.38 95.8123C135.376 95.8426 135.378 95.8733 135.387 95.9025C135.396 95.9318 135.411 95.9589 135.43 95.9823C135.45 96.0056 135.475 96.0246 135.502 96.0382C135.529 96.0517 135.559 96.0594 135.59 96.0609C139.094 96.3011 143.965 96.848 144.013 96.8538C144.067 96.8595 144.121 96.8481 144.167 96.8212C144.199 96.8032 144.227 96.7785 144.248 96.7487C144.269 96.7189 144.283 96.6848 144.29 96.6489C144.295 96.6189 144.294 96.5881 144.287 96.5585C144.279 96.5288 144.266 96.501 144.248 96.4768C144.229 96.4526 144.205 96.4325 144.179 96.4177C144.152 96.403 144.122 96.3939 144.092 96.3911Z" fill="#EE6A4A"/>
<path d="M143.429 99.1336C143.388 99.1284 139.298 98.6278 136.206 98.4301C136.142 98.4265 136.08 98.4469 136.03 98.4871C135.981 98.5274 135.949 98.5846 135.94 98.6474C135.936 98.6777 135.939 98.7084 135.948 98.7377C135.956 98.7669 135.971 98.794 135.991 98.8172C136.011 98.8404 136.036 98.8593 136.063 98.8726C136.091 98.886 136.121 98.8935 136.151 98.8947C139.226 99.0905 143.304 99.5904 143.345 99.5956C143.408 99.6028 143.472 99.586 143.524 99.5485C143.576 99.5111 143.612 99.4557 143.624 99.3933C143.63 99.3634 143.629 99.3326 143.622 99.3029C143.615 99.2733 143.602 99.2454 143.584 99.221C143.565 99.1966 143.542 99.1763 143.515 99.1612C143.489 99.1462 143.459 99.1368 143.429 99.1336Z" fill="#EE6A4A"/>
<path d="M212.007 125.545L211.989 125.54C211.662 125.602 202.875 132.922 194.404 140.027C186.386 146.749 178.654 153.283 178.654 153.283L168.93 156.576H187.176C187.176 156.576 206.45 148.614 219.038 139.661C223.08 136.783 226.433 133.805 228.237 130.952L228.357 115.49L211.382 119.727L212.007 125.545Z" fill="#F19A6D"/>
<path d="M25.9495 78.1543C24.4374 76.2167 22.6197 75.2985 20.8347 75.5674C19.0498 75.8363 17.5849 77.2498 16.7167 79.5483L2.14818 118.073C1.28457 120.357 1.45113 122.403 2.61703 123.837C3.78293 125.271 5.78228 125.867 8.22884 125.498L47.7285 119.544C50.1751 119.175 51.9036 118.024 52.5941 116.303C53.2846 114.581 52.8315 112.587 51.3272 110.66L25.9495 78.1543Z" fill="#863B90"/>
<path d="M26.288 111.421C25.7674 111.499 25.282 111.73 24.8931 112.083C24.5042 112.436 24.2293 112.896 24.1031 113.405C23.9769 113.914 24.0051 114.448 24.1841 114.941C24.3632 115.434 24.685 115.863 25.1089 116.173C25.5328 116.484 26.0398 116.663 26.5657 116.687C27.0917 116.711 27.613 116.579 28.0637 116.308C28.5144 116.038 28.8744 115.64 29.098 115.166C29.3216 114.691 29.3989 114.162 29.3201 113.643C29.2677 113.299 29.1477 112.969 28.967 112.671C28.7863 112.373 28.5483 112.113 28.2667 111.907C27.9852 111.7 27.6655 111.551 27.3259 111.468C26.9864 111.384 26.6337 111.368 26.288 111.421Z" fill="white"/>
<path d="M25.7494 88.2695C25.7215 87.9292 25.623 87.5983 25.4603 87.2977C25.2977 86.9971 25.0742 86.7332 24.8041 86.5226C24.534 86.3121 24.223 86.1594 23.8907 86.0743C23.5585 85.9891 23.2121 85.9733 22.8734 86.0279L21.996 86.1584C21.6563 86.206 21.3301 86.3232 21.0381 86.5023C20.7461 86.6815 20.4945 86.9189 20.2991 87.1996C20.1037 87.4803 19.9688 87.7982 19.9029 88.1332C19.837 88.4683 19.8414 88.8133 19.916 89.1466L23.516 106.033C23.8203 107.459 24.8583 108.507 25.8235 108.361C26.7888 108.216 27.4688 106.909 27.3357 105.458L25.7494 88.2695Z" fill="white"/>
<path d="M190.273 9.25247C187.018 8.83089 179.855 9.30011 181.643 14.361C181.734 14.6162 181.84 14.8668 181.957 15.1141C180.262 15.4939 178.964 16.4076 178.635 18.2211C178.144 20.9203 180.697 23.6142 183.071 25.5779C180.579 27.4548 182.312 30.1924 184.664 32.333C184.541 32.4997 184.438 32.6792 184.354 32.8681C183.279 35.3369 185.579 38.4067 187.279 39.9305C187.973 40.5537 188.994 39.5161 188.294 38.8864C187.275 37.9727 185.923 36.569 185.751 35.1287C185.666 34.4167 185.807 33.8887 186.094 33.5135C187.266 34.3958 188.415 35.0797 189.15 35.3956C190.401 35.9392 193.049 37.0623 193.646 35.0399C194.236 33.0423 191.089 31.803 189.66 31.3854C188.388 31.0147 186.775 30.8822 185.603 31.5081C184.739 30.6956 183.816 29.5875 183.666 28.5544C183.525 27.5833 183.877 27.0019 184.462 26.6697C184.82 26.9405 185.157 27.1918 185.456 27.4078C188.664 29.763 193.456 33.0678 197.709 32.4876C198.108 32.4328 198.293 31.9473 198.218 31.6073C197.325 27.5285 188.829 23.4935 184.392 24.8979C182.594 23.4746 180.916 21.7804 180.326 19.9381C179.595 17.6684 180.812 16.7208 182.771 16.4872C185.053 19.7665 189.426 22.2784 192.534 24.0508C196.137 26.1059 201.452 29.1796 205.814 28.2927C206.207 28.2131 206.391 27.7804 206.315 27.4254C205.18 22.0963 196.853 18.3778 192.285 16.5616C190.553 15.8731 186.682 14.7513 183.49 14.9151C182.91 14.0399 182.491 13.0225 182.955 12.1089C184.222 9.62119 189.416 10.3704 191.517 10.7456C198.993 12.0808 205.165 16.3873 209.894 22.202C209.951 22.2725 210.07 22.1785 210.02 22.1035C205.4 15.1539 198.676 10.3417 190.273 9.25247ZM190.63 33.3334C193.257 34.6569 190.907 34.6027 189.522 33.9788C188.753 33.6395 188.009 33.2492 187.293 32.8107C188.328 32.5822 189.668 32.8531 190.63 33.336V33.3334ZM188.351 26.5366C190.872 27.12 195.209 28.5087 196.513 31.1433C193.538 31.1054 190.199 28.8722 187.912 27.3778C187.413 27.0515 186.858 26.6867 186.279 26.2886C186.977 26.296 187.672 26.3801 188.351 26.5392V26.5366ZM193.487 18.6303C197.01 20.3375 203.207 23.0556 204.708 27.026C201.399 27.2871 197.449 25.076 194.752 23.6593C191.184 21.785 187.43 19.4989 184.723 16.4526C188.053 16.6686 192.18 17.9993 193.487 18.6329V18.6303Z" fill="#992E2E"/>
<path d="M76.0721 17.3534C72.455 21.1796 66.3672 24.3832 61.0183 26.3593C59.255 27.0119 57.4393 27.5992 55.6039 28.1337C51.7724 29.2431 47.8531 30.1084 44.1383 30.778C41.5114 31.2518 38.9868 31.6264 36.6681 31.9272C32.1639 32.5067 28.4353 32.7945 26.2419 32.929C24.8773 33.0125 24.1049 33.0373 24.1049 33.0373C23.3416 33.4654 23.8531 40.1572 23.8531 40.1572C27.3779 39.5368 30.7304 38.8876 33.9108 38.2098C36.8397 37.5872 39.6264 36.9438 42.2708 36.2794C45.1639 35.555 47.8933 34.81 50.459 34.0443C54.1311 32.9514 57.4843 31.827 60.5186 30.671C63.0104 29.7273 65.2959 28.7715 67.375 27.8035C74.0635 24.7049 79.8032 20.5877 82.7193 17.5792C82.5731 16.7419 76.6557 16.7328 76.0721 17.3534Z" fill="#FFD900"/>
<path d="M36.6681 31.9272C38.2484 33.71 40.1471 35.1857 42.2681 36.2794C45.1612 35.555 47.8906 34.81 50.4563 34.0442C47.613 33.2448 45.4183 31.7908 44.1383 30.7812C41.5114 31.2518 38.9868 31.6283 36.6681 31.9272Z" fill="#1A2E35"/>
<path d="M50.499 33.8946C47.7154 33.1115 45.5574 31.7025 44.2367 30.657C44.2191 30.6431 44.1987 30.6331 44.1769 30.6277C44.155 30.6223 44.1323 30.6216 44.1102 30.6257C41.7115 31.0577 39.2007 31.4441 36.6479 31.773C36.6193 31.7766 36.5922 31.7879 36.5696 31.8058C36.547 31.8236 36.5298 31.8472 36.5197 31.8741C36.5096 31.901 36.5072 31.9301 36.5125 31.9583C36.5179 31.9865 36.5309 32.0127 36.5502 32.034C38.1428 33.8321 40.0573 35.32 42.1961 36.4221C42.2185 36.4332 42.2432 36.439 42.2682 36.4391C42.2812 36.4392 42.2942 36.4376 42.3069 36.4345C45.1331 35.7264 47.8905 34.974 50.5036 34.1974C50.5362 34.1877 50.5649 34.1678 50.5852 34.1407C50.6056 34.1135 50.6166 34.0805 50.6166 34.0466C50.6166 34.0128 50.6056 33.9798 50.5852 33.9526C50.5649 33.9254 50.5362 33.9056 50.5036 33.8959L50.499 33.8946ZM42.2879 36.1134C40.2927 35.0787 38.497 33.7012 36.9836 32.0445C39.4144 31.7267 41.8046 31.3573 44.0938 30.9455C45.3587 31.9387 47.3515 33.2381 49.9029 34.044C47.4675 34.7606 44.9075 35.4563 42.2879 36.1134Z" fill="#1A2E35"/>
<path d="M26.2393 32.9316C24.8748 33.0152 24.1023 33.04 24.1023 33.04C23.339 33.4681 23.8505 40.1598 23.8505 40.1598C27.3753 39.5394 30.7279 38.8903 33.9082 38.2125C30.4446 37.2734 27.758 34.7093 26.2393 32.9316Z" fill="#1A2E35"/>
<path d="M33.9495 38.0598C30.5921 37.1501 27.9691 34.7133 26.3593 32.8286C26.3432 32.81 26.323 32.7953 26.3002 32.7858C26.2775 32.7763 26.2528 32.7722 26.2282 32.7738C24.8819 32.856 24.1029 32.8821 24.095 32.8821C24.0697 32.883 24.045 32.8899 24.0229 32.9023C23.7606 33.0485 23.4714 33.6202 23.5305 36.7618C23.5626 38.4729 23.6898 40.1553 23.6911 40.1703C23.6939 40.2099 23.7118 40.2468 23.741 40.2737C23.7702 40.3007 23.8087 40.3155 23.8485 40.3152C23.8574 40.3162 23.8664 40.3162 23.8754 40.3152C27.3364 39.7037 30.7219 39.0511 33.9409 38.3646C33.9757 38.3574 34.0069 38.3388 34.0297 38.3118C34.0525 38.2847 34.0654 38.2508 34.0664 38.2156C34.0674 38.1803 34.0564 38.1457 34.0352 38.1175C34.0139 38.0892 33.9837 38.0689 33.9495 38.0598ZM23.9947 39.9739C23.9619 39.5021 23.8734 38.1388 23.8478 36.7553C23.7927 33.8369 24.0596 33.2965 24.1567 33.194C24.3442 33.1875 25.0564 33.1588 26.1704 33.0916C27.7167 34.8888 30.1586 37.156 33.2747 38.1819C30.295 38.811 27.1757 39.412 23.9947 39.9739Z" fill="#1A2E35"/>
<path d="M55.6066 28.1357C56.9395 29.4687 58.6563 30.3555 60.5187 30.6731C63.0105 29.7294 65.296 28.7736 67.3751 27.8055C65.1982 27.6314 63.058 27.145 61.021 26.3613C59.2551 27.0146 57.4426 27.6039 55.6066 28.1357Z" fill="#1A2E35"/>
<path d="M67.3856 27.6472C65.2237 27.475 63.0983 26.9913 61.0761 26.2114C61.0397 26.1978 60.9996 26.1978 60.9633 26.2114C59.28 26.8353 57.4616 27.4311 55.56 27.9826C55.5339 27.9904 55.5103 28.0048 55.4915 28.0245C55.4727 28.0441 55.4593 28.0683 55.4527 28.0946C55.4461 28.1209 55.4465 28.1485 55.4538 28.1746C55.4611 28.2007 55.4751 28.2245 55.4944 28.2436C56.8493 29.6002 58.595 30.5033 60.4892 30.8273C60.4981 30.8279 60.5071 30.8279 60.5161 30.8273C60.5353 30.827 60.5544 30.8235 60.5724 30.8168C63.0151 29.8908 65.3252 28.9243 67.4393 27.9454C67.4707 27.9306 67.4964 27.906 67.5123 27.8753C67.5282 27.8446 67.5335 27.8095 67.5274 27.7755C67.5213 27.7414 67.5041 27.7104 67.4784 27.6871C67.4528 27.6638 67.4202 27.6495 67.3856 27.6465V27.6472ZM60.5003 30.5095C58.7767 30.2072 57.1805 29.4072 55.9102 28.209C57.7036 27.683 59.421 27.1179 61.0184 26.5273C62.8689 27.2352 64.8048 27.6986 66.7764 27.9056C64.8269 28.7931 62.7187 29.6676 60.501 30.5095H60.5003Z" fill="#1A2E35"/>
<path d="M71.3089 21.248C70.214 21.99 69.0806 22.674 67.9135 23.2972C69.5245 24.0645 71.2288 24.6204 72.9836 24.9509C74.7494 23.949 76.4501 22.8374 78.0754 21.6226C75.8156 21.9038 73.5234 21.7769 71.3089 21.248Z" fill="#1A2E35"/>
<path d="M78.0551 21.4675C75.8138 21.7456 73.5404 21.6192 71.3442 21.0942C71.3229 21.089 71.3007 21.0885 71.2791 21.0925C71.2575 21.0966 71.237 21.1051 71.219 21.1177C70.1283 21.8559 68.9995 22.5368 67.8374 23.1577C67.8119 23.1715 67.7908 23.192 67.7762 23.2169C67.7617 23.2419 67.7543 23.2703 67.7549 23.2992C67.7555 23.328 67.7641 23.3561 67.7797 23.3804C67.7953 23.4047 67.8173 23.4243 67.8433 23.437C69.4662 24.2107 71.1833 24.771 72.9515 25.1038C72.9614 25.1058 72.9715 25.1069 72.9816 25.107C73.0092 25.107 73.0364 25.0998 73.0603 25.0861C74.8315 24.0805 76.5378 22.9656 78.1692 21.7481C78.1971 21.7273 78.2173 21.6979 78.2266 21.6645C78.2359 21.631 78.2338 21.5955 78.2205 21.5634C78.2073 21.5312 78.1838 21.5044 78.1536 21.4871C78.1234 21.4697 78.0883 21.4628 78.0538 21.4675H78.0551ZM72.9547 24.7846C71.3353 24.4737 69.7593 23.9698 68.261 23.2837C69.358 22.6846 70.3921 22.0561 71.3429 21.4127C73.3639 21.8874 75.449 22.0322 77.5167 21.8414C76.0513 22.9047 74.5283 23.8873 72.9547 24.7846Z" fill="#1A2E35"/>
<path d="M73.6334 135.949C71.1416 134.83 68.5645 135.496 66.4904 137.367L70.3488 132.65C70.422 132.575 70.4715 132.48 70.4911 132.377C70.5206 132.091 70.1862 131.986 69.9468 132.008C67.8432 132.204 65.8353 133.575 64.6189 135.649C65.7993 133.489 66.94 131.299 68.0412 129.076C68.1324 128.892 68.2262 128.68 68.1724 128.475C68.076 128.091 67.6176 128.118 67.3035 128.249C65.0019 129.215 63.1527 131.612 62.5245 134.443C62.9835 131.802 63.377 129.147 63.7048 126.477C63.3927 126.405 63.0963 126.656 62.8583 126.909C61.2222 128.653 60.2275 131.236 60.1816 133.864C60.0839 130.654 59.9704 127.355 58.9055 124.408C57.5527 127.571 57.1717 131.319 57.8511 134.781C57.0419 132.273 56.2026 129.703 54.7035 127.708C54.2839 127.15 53.5757 126.622 53.0865 127.092C53.8882 129.855 54.8947 132.555 56.0976 135.17C55.335 133.604 54.2806 132.247 53.0353 131.223C52.1888 130.526 51.1566 129.968 50.1599 130.257C50.0248 130.296 49.8642 130.401 49.8832 130.567C49.8975 130.641 49.9338 130.709 49.9875 130.763C51.1975 132.208 52.4071 133.654 53.6163 135.098C52.7606 134.475 51.895 133.845 50.9429 133.476C49.9908 133.107 48.9285 133.015 48.0019 133.469C47.8445 133.546 47.674 133.665 47.6471 133.867C47.6137 134.124 47.8288 134.318 48.0163 134.446C49.3986 135.397 50.7245 136.193 51.9875 137.383C49.8753 135.55 46.8629 135.36 44.6019 136.916C44.2681 137.146 43.9075 137.609 44.1101 138.002C44.2124 138.198 44.4183 138.273 44.6065 138.325C45.6727 138.619 46.7835 138.718 47.8852 138.617C46.9317 138.904 45.918 139.232 45.2622 140.108C44.6065 140.984 44.5357 142.597 45.3809 143.199C45.5455 143.317 45.7429 143.388 45.9285 143.334C46.0937 143.286 46.2281 143.146 46.3586 143.015C47.3101 142.053 48.4412 141.253 49.6812 141.148C50.7206 141.058 51.6622 141.535 52.3783 142.421C53.1317 143.354 53.5993 143.22 54.7206 143.323C57.3391 143.565 59.9337 144.017 62.4793 144.674C63.0537 144.822 63.6773 144.975 64.2071 144.674C64.6196 144.438 64.897 143.97 65.2098 143.571C65.9966 142.565 67.8832 141.704 69.0222 141.893C70.0058 142.056 70.7816 142.931 71.5704 143.655C72.2144 144.245 73.1239 144.764 73.7894 144.205C74.4137 143.683 74.3848 142.543 74.0826 141.705C73.3737 139.743 71.4596 138.526 69.7134 138.924C71.0035 138.596 72.3393 138.481 73.6668 138.586C73.9908 138.611 74.3435 138.642 74.613 138.425C75.0065 138.11 75.0301 137.381 74.7763 136.902C74.5226 136.423 74.0753 136.148 73.6334 135.949Z" fill="#4D7772"/>
<path d="M65.5502 139.221L71.6158 134.166C68.4683 134.663 65.5089 136.69 63.5502 139.689C63.6814 138.657 64.206 137.765 64.7305 136.939C66.3019 134.482 68.1039 132.179 70.1122 130.06C68.0833 130.429 66.2296 131.77 64.8099 133.551C63.3902 135.331 62.3791 137.532 61.6243 139.827C61.3863 137.517 62.4728 135.352 63.3522 133.277C64.3651 130.878 65.1406 128.386 65.6676 125.837C62.9935 129.537 60.3325 133.576 59.6158 138.401C60.1987 133.03 61.9653 127.777 61.5797 122.381C59.5515 127.322 58.3771 132.768 58.1542 138.272C57.5391 135.849 57.6755 133.257 57.4879 130.733C57.1987 126.837 56.1319 123.093 55.0728 119.395C54.5482 122.75 55.084 126.21 55.804 129.51C56.524 132.809 57.4355 136.082 57.6846 139.483C56.9705 136.623 56.242 133.722 54.9063 131.204C53.5102 128.569 51.4925 126.454 49.2322 124.913C50.1791 127.647 51.943 129.826 53.4243 132.193C54.9056 134.559 56.1705 137.407 55.8505 140.342C55.1141 139.127 54.6046 137.738 53.966 136.444C52.0892 132.625 49.0728 129.634 45.5961 128.147C46.6237 130.075 48.1109 131.569 49.4381 133.212C50.8735 134.996 52.1154 136.925 53.143 138.969C50.6099 136.185 47.4643 134.365 44.3679 132.586C46.6781 137.611 52.7653 138.589 55.2033 143.527C56.9222 142.747 58.8149 142.425 60.6964 142.592C61.5555 142.67 62.4591 142.882 63.0912 143.584C63.7601 142.48 64.4479 141.351 65.3863 140.582C66.9292 139.326 68.9115 139.222 70.7758 139.247C72.3863 139.267 74.0624 139.372 75.4774 140.296C72.7384 137.641 68.6446 137.196 65.5502 139.221Z" fill="#498981"/>
<path d="M49.9481 141.779L50.9468 145.969L53.4957 156.667H66.295L69.4793 141.768C63.213 142.313 56.6871 142.278 49.9481 141.779Z" fill="#E6336B"/>
<path d="M49.9481 141.778L50.9468 145.968C52.2458 147.605 54.9075 150.236 58.8812 150.726C62.5107 151.174 63.6124 154.316 63.9612 156.665H66.295L69.4793 141.766C63.213 142.312 56.6871 142.277 49.9481 141.778Z" fill="#B32F57"/>
<path d="M60.2624 140.303C60.1851 140.509 60.135 140.724 60.1135 140.944C60.169 140.731 60.2187 140.517 60.2624 140.303Z" fill="#62A4A1"/>
<path d="M53.3594 141.095C53.6479 141.038 53.9326 140.963 54.2118 140.871C53.9141 140.879 53.6224 140.956 53.3594 141.095Z" fill="#62A4A1"/>
<path d="M68.2346 141.919C68.2078 141.884 68.1808 141.849 68.1536 141.814C68.1755 141.853 68.2028 141.888 68.2346 141.919Z" fill="#62A4A1"/>
<path d="M68.4997 139.889C67.3436 138.897 65.6971 138.813 64.4741 139.683C64.7823 139.331 65.0502 138.946 65.2728 138.536C65.3699 138.358 65.4623 138.141 65.404 137.942C65.3804 137.876 65.3436 137.815 65.2959 137.763C65.2481 137.711 65.1903 137.669 65.1259 137.64C63.6912 136.909 62.0512 139.223 61.6663 140.672C61.8163 140.101 61.8557 139.507 61.7823 138.922C61.1266 139.022 60.5364 139.58 60.2669 140.303C60.2197 140.517 60.1701 140.731 60.1181 140.944C60.1395 140.725 60.1896 140.509 60.2669 140.303C60.5499 139.029 60.7566 137.74 60.8859 136.442C60.9272 136.026 60.903 135.49 60.5764 135.343C60.2499 135.196 59.9259 135.604 59.7515 135.981C59.0603 137.506 58.7522 139.174 58.8538 140.843C58.5535 139.5 58.2341 138.11 57.4918 137.043C57.2335 136.672 56.8361 136.325 56.459 136.485C56.1731 136.609 56.0138 136.996 56.0105 137.361C56.0072 137.726 56.1279 138.074 56.2512 138.405C56.5891 139.319 56.9642 140.211 57.3764 141.081C56.7863 140.09 56.1961 139.097 55.5181 138.194C54.9318 137.414 54.1187 136.648 53.2702 136.901C53.1187 136.947 52.9613 137.038 52.8977 137.21C52.7902 137.5 53.0033 137.808 53.1981 138.023L55.4931 140.569C54.3213 139.713 50.9685 137.607 50.2164 140.266C50.1758 140.391 50.1653 140.522 50.1856 140.651C50.2512 140.978 50.583 141.097 50.8603 141.142C51.6907 141.276 52.5386 141.26 53.3633 141.095C53.6263 140.956 53.9181 140.88 54.2158 140.871C53.9365 140.963 53.6518 141.038 53.3633 141.095C52.8204 141.375 52.3613 141.897 52.1259 142.549C51.9528 143.027 52.0485 143.796 52.4813 143.785C52.6053 143.785 52.7194 143.707 52.8276 143.633L55.8899 141.552C54.9469 142.514 54.6564 144.286 55.2249 145.606C55.4518 146.131 55.92 146.626 56.3882 146.443C56.8184 146.275 56.9738 145.66 57.1095 145.141C57.4146 143.962 57.9623 142.859 58.7181 141.902C58.0276 143.656 57.9482 145.744 58.5023 147.567C58.7305 148.318 59.0885 149.057 59.6682 149.448C59.7849 149.527 59.9174 149.592 60.0499 149.569C60.2944 149.525 60.4335 149.213 60.5089 148.93C61.103 146.655 60.04 143.905 61.1469 141.925C61.3458 143.39 61.6471 144.84 62.0485 146.263C62.1751 146.711 62.4643 147.254 62.8354 147.112C63.0453 147.03 63.1548 146.757 63.2289 146.507C63.6039 145.168 63.5701 143.749 63.1318 142.43C63.643 143.872 64.3254 145.248 65.1646 146.529C65.4125 146.905 65.764 147.312 66.1521 147.191C66.4072 147.114 66.5784 146.83 66.699 146.549C67.5351 144.6 66.7207 141.893 65.0413 141.038C66.1436 141.457 66.8171 142.766 67.7469 143.594C67.8689 143.702 68.0026 143.806 68.1541 143.821C68.5161 143.856 68.7764 143.342 68.7213 142.911C68.6728 142.526 68.459 142.21 68.2394 141.92C68.2077 141.889 68.1806 141.854 68.1587 141.816C68.1858 141.85 68.2127 141.885 68.2394 141.92C68.5535 142.227 69.1574 141.855 69.2079 141.327C69.2597 140.745 68.8951 140.227 68.4997 139.889Z" fill="#62A4A1"/>
<path d="M263.765 81.1965C270.368 74.6245 270.368 63.9692 263.765 57.3973C257.161 50.8253 246.455 50.8253 239.851 57.3973C233.248 63.9692 233.248 74.6245 239.851 81.1965C246.455 87.7684 257.161 87.7684 263.765 81.1965Z" fill="#B0CDF8"/>
<path d="M265.393 70.3202C262.832 79.2608 253.476 84.4385 244.495 81.8907C241.651 81.0869 239.07 79.5519 237.012 77.44C238.088 79.3822 239.54 81.0928 241.285 82.4729C243.029 83.8529 245.032 84.875 247.176 85.48C256.159 88.0252 265.513 82.8475 268.073 73.9088C269.792 67.9049 268.007 61.7404 263.93 57.5625C266.098 61.4538 266.624 66.0428 265.393 70.3202Z" fill="#6381CC"/>
<path d="M261.299 59.7554C261.299 59.7554 258.782 60.6214 257.304 60.5032C255.825 60.3851 254.236 59.8591 253.028 60.6449C251.82 61.4306 250.871 62.3664 249.942 63.2318C249.014 64.0971 248.395 64.6746 248.495 65.3801C248.595 66.0856 249.046 66.8915 250.134 66.5228C251.223 66.1541 251.412 65.756 252.142 65.587C252.871 65.418 253.382 65.4121 253.985 65.5831C254.589 65.754 255.519 65.9426 255.009 66.4001C254.5 66.8576 253.874 68.1856 253.874 68.1856C253.874 68.1856 252.956 69.2056 253.456 69.6475C253.955 70.0893 254.462 70.4221 255.376 69.8726C256.29 69.3231 256.829 69.0242 257.579 69.312C258.328 69.5998 259.378 70.4214 259.128 71.5576C258.879 72.6938 259.18 74.2822 258.222 75.5156C257.263 76.749 257.493 76.7386 255.366 77.0381C253.239 77.3377 250.776 77.694 251.029 78.8191C251.283 79.9442 252.29 80.3808 252.541 81.3551C252.791 82.3294 252.502 83.602 252.502 83.602L251.951 84.7695C258.243 83.771 263.7 79.2622 265.562 72.7617C266.217 70.4823 266.38 68.0907 266.039 65.7442C265.698 63.3978 264.862 61.1498 263.585 59.1484C262.351 59.4114 261.299 59.7554 261.299 59.7554Z" fill="#75A3DB"/>
<path d="M268.698 68.4472C268.685 68.1914 268.668 67.9368 268.643 67.6836C268.638 67.6386 268.632 67.5936 268.628 67.5486C268.604 67.3201 268.575 67.0928 268.542 66.8666C268.534 66.8189 268.529 66.7713 268.521 66.7237C268.482 66.4765 268.438 66.2303 268.39 65.9849C268.377 65.9242 268.364 65.8642 268.351 65.8035C268.3 65.5666 268.246 65.331 268.185 65.0967C268.179 65.0739 268.173 65.0504 268.167 65.0269C268.104 64.792 268.035 64.5596 267.963 64.328C267.943 64.2627 267.923 64.1974 267.902 64.1322C267.827 63.9025 267.748 63.6747 267.664 63.4489C267.643 63.3921 267.62 63.3354 267.599 63.2786C267.526 63.0898 267.449 62.9029 267.37 62.718C267.344 62.6567 267.319 62.5947 267.291 62.5333C267.198 62.3206 267.099 62.1098 266.995 61.901C266.959 61.8272 266.921 61.7541 266.884 61.6804C266.794 61.5064 266.701 61.3323 266.605 61.1583C266.563 61.0826 266.521 61.0075 266.477 60.9325C266.38 60.7635 266.281 60.5964 266.176 60.4313C266.149 60.3869 266.121 60.3425 266.092 60.3008C265.784 60.366 265.487 60.4378 265.215 60.507C266.589 64.7131 266.244 69.2885 264.254 73.2433C262.265 77.198 258.79 80.2141 254.583 81.6388C254.788 81.8999 254.966 82.1694 255.052 82.5061C255.302 83.4805 255.014 84.753 255.014 84.753L254.462 85.9205C254.642 85.8918 254.822 85.8592 255.001 85.8252L255.11 85.8037C255.652 85.6962 256.186 85.5627 256.712 85.403L256.806 85.3749C256.974 85.3227 257.141 85.2684 257.307 85.2118L257.411 85.1753C257.914 84.9991 258.408 84.7998 258.891 84.5775L259.052 84.5031C259.198 84.4339 259.344 84.3634 259.488 84.2903C259.531 84.2688 259.572 84.2453 259.615 84.2251C259.883 84.0867 260.145 83.9412 260.402 83.7885C260.459 83.7552 260.516 83.7232 260.572 83.6893C260.697 83.6142 260.82 83.5366 260.943 83.4583C261.018 83.4104 261.092 83.3621 261.165 83.3134C261.283 83.2357 261.4 83.1587 261.515 83.0785C261.599 83.0197 261.68 82.9597 261.763 82.8996C261.941 82.7691 262.118 82.636 262.292 82.5003C262.38 82.4311 262.468 82.3619 262.555 82.2914C262.641 82.2209 262.744 82.1348 262.838 82.0545C262.932 81.9743 263.027 81.8907 263.12 81.8072C263.201 81.7341 263.284 81.6623 263.365 81.5879C263.521 81.4422 263.674 81.2932 263.824 81.1409C263.896 81.0684 263.967 80.9941 264.038 80.9197C264.136 80.8172 264.235 80.7128 264.331 80.6077C264.396 80.5333 264.467 80.4583 264.533 80.3826C264.657 80.2423 264.779 80.0987 264.898 79.9538C264.952 79.8885 265.006 79.8233 265.059 79.758C265.182 79.604 265.302 79.4474 265.42 79.2882C265.473 79.2177 265.524 79.1459 265.575 79.0741C265.674 78.9364 265.772 78.7961 265.866 78.6545C265.91 78.5892 265.954 78.524 265.997 78.4587C266.129 78.259 266.255 78.0558 266.377 77.8492C266.406 77.8002 266.433 77.75 266.462 77.7004C266.559 77.532 266.653 77.3615 266.746 77.1887C266.783 77.1189 266.82 77.0484 266.856 76.978C266.948 76.7987 267.037 76.6175 267.123 76.4343C267.144 76.388 267.167 76.3423 267.188 76.296C267.292 76.0695 267.391 75.8392 267.485 75.6062C267.51 75.5409 267.533 75.4822 267.557 75.4202C267.629 75.2375 267.698 75.0528 267.763 74.8661C267.788 74.7963 267.812 74.7271 267.835 74.6567C267.917 74.4126 267.997 74.1666 268.068 73.916C268.145 73.6484 268.212 73.3802 268.275 73.1113C268.289 73.0539 268.302 72.9971 268.315 72.9397C268.373 72.6786 268.426 72.4176 268.471 72.1566C268.479 72.1135 268.485 72.0698 268.492 72.026C268.532 71.7859 268.567 71.5455 268.596 71.3049C268.601 71.2612 268.608 71.2168 268.612 71.1744C268.643 70.9134 268.665 70.6523 268.682 70.3913C268.686 70.3338 268.689 70.2771 268.692 70.2203C268.706 69.9553 268.717 69.691 268.719 69.428V69.4215C268.719 69.1566 268.715 68.8936 268.704 68.6306C268.704 68.5627 268.701 68.5046 268.698 68.4472Z" fill="#6381CC"/>
<path d="M246.132 56.3402C246.622 55.9486 246.741 55.0076 246.83 54.4307C246.87 54.1755 246.502 53.8042 246.073 53.4688C241.135 55.2458 237.096 59.2769 235.547 64.683C233.601 71.4759 236.143 78.4803 241.416 82.5714C241.391 82.5062 240.386 79.8338 240.629 78.7139C240.878 77.5803 242.106 77.2514 242.445 76.5199C242.784 75.7883 240.067 75.3935 240.067 75.3935L237.889 74.5497L236.56 72.291L237.338 69.5762L238.894 69.1899L239.625 71.1281C239.625 71.1281 240.275 72.8183 241.325 72.8144C242.374 72.8105 240.774 70.5512 240.184 69.1794C239.593 67.8077 240.412 68.115 240.662 67.5088C240.911 66.9025 242.8 67.6634 242.8 67.6634L242.838 65.1907C242.838 65.1907 242.997 63.5801 243.576 63.1422C244.155 62.7043 246.063 62.117 246.802 61.1192C247.541 60.1213 245.581 57.9867 245.581 57.9867C245.581 57.9867 245.643 56.7285 246.132 56.3402Z" fill="#75A3DB"/>
<path d="M237.017 77.4453C237.079 77.5556 237.144 77.6639 237.207 77.7716C237.254 77.8506 237.299 77.9295 237.346 78.0079C237.422 78.1318 237.5 78.2545 237.579 78.3766C237.626 78.4497 237.673 78.5221 237.721 78.5939C237.805 78.7198 237.889 78.8445 237.976 78.9685C238.014 79.0207 238.052 79.0722 238.09 79.1245C238.3 79.4155 238.518 79.7 238.745 79.9781V79.982C238.856 80.1125 238.968 80.243 239.082 80.3735L239.195 80.504C239.311 80.6346 239.427 80.7599 239.547 80.8852L239.621 80.9609C240.018 81.3735 240.435 81.7656 240.873 82.1355L240.959 82.2086C241.102 82.3274 241.246 82.4442 241.393 82.5591L241.411 82.5728C241.14 81.8383 240.917 81.0871 240.743 80.3239C239.371 79.5429 238.117 78.5739 237.017 77.4453Z" fill="#6381CC"/>
<path d="M267.202 65.0086C269.842 63.9206 271.095 60.9094 270.002 58.2828C268.909 55.6562 265.883 54.4089 263.244 55.4969C260.604 56.5848 259.351 59.5961 260.444 62.2227C261.537 64.8492 264.563 66.0965 267.202 65.0086Z" fill="#FF3B3B"/>
<path d="M265.691 59.6188L265.405 59.207L265.08 59.6495L265.691 59.6188Z" fill="white"/>
<path d="M265.877 60.5826L266.183 60.18L265.885 59.7812L265.877 60.5826Z" fill="white"/>
<path d="M265.877 60.582L265.885 59.7806L266.183 60.1793L267.734 58.1406H266.186L265.405 59.2076L265.691 59.6194L265.08 59.6501L265.405 59.2076L264.662 58.1406H263.007L264.553 60.2374L264.887 59.8041L264.848 60.6355L264.553 60.2374L262.952 62.3218H264.554L265.36 61.2313L265.033 60.751L265.652 60.8359L265.36 61.2313L266.102 62.3218H267.788L266.183 60.1793L265.877 60.582Z" fill="white"/>
<path d="M264.887 59.8047L264.553 60.238L264.848 60.6361L264.887 59.8047Z" fill="white"/>
<path d="M265.033 60.75L265.36 61.2303L265.652 60.8348L265.033 60.75Z" fill="white"/>
</svg>
