<svg width="64" height="64" viewBox="0 0 64 64" fill="none" xmlns="http://www.w3.org/2000/svg">
<path fill-rule="evenodd" clip-rule="evenodd" d="M32 57.6004C46.1385 57.6004 57.6 46.1389 57.6 32.0004C57.6 17.8619 46.1385 6.40039 32 6.40039C17.8615 6.40039 6.39999 17.8619 6.39999 32.0004C6.39999 46.1389 17.8615 57.6004 32 57.6004ZM43.8627 27.8631C45.1124 26.6135 45.1124 24.5873 43.8627 23.3376C42.6131 22.088 40.5869 22.088 39.3372 23.3376L28.8 33.8749L24.6627 29.7376C23.4131 28.488 21.3869 28.488 20.1373 29.7376C18.8876 30.9873 18.8876 33.0135 20.1373 34.2631L26.5373 40.6631C27.7869 41.9128 29.8131 41.9128 31.0627 40.6631L43.8627 27.8631Z" fill="#37B175"/>
</svg>
