<svg width="298" height="192" viewBox="0 0 298 192" fill="none" xmlns="http://www.w3.org/2000/svg">
<g clip-path="url(#clip0_7706_69331)">
<path d="M150.767 5.42494C71.4014 8.52045 3.06175 64.8192 5.50703 127.445C7.59613 180.99 54.834 186.78 118.1 185.398C128.827 185.162 140.013 184.724 151.516 184.275C161.123 183.901 170.506 183.918 179.573 184.128C245.415 185.647 294.639 197.269 292.494 142.221C290.048 79.6002 230.132 2.32863 150.767 5.42494Z" fill="#ECE9FB"/>
<path d="M69.9601 100.429L56.857 98.5242C56.5721 98.4826 56.3015 98.3723 56.0686 98.2029C55.8358 98.0334 55.6476 97.8099 55.5204 97.5516L49.6603 85.679C49.0078 84.3573 47.1231 84.3573 46.4713 85.679L40.6112 97.5516C40.4838 97.8098 40.2956 98.0332 40.0628 98.2026C39.83 98.372 39.5595 98.4824 39.2746 98.5242L26.1715 100.429C24.7122 100.64 24.1272 102.433 25.1856 103.462L34.6671 112.704C34.8732 112.905 35.0274 113.153 35.1165 113.427C35.2057 113.701 35.2271 113.992 35.179 114.276L32.9405 127.328C32.6912 128.781 34.2158 129.889 35.5202 129.203L47.2355 123.038C47.4901 122.905 47.7735 122.835 48.0611 122.835C48.3487 122.835 48.632 122.905 48.8867 123.038L60.6067 129.199C61.9111 129.886 63.4372 128.778 63.1872 127.325L60.9487 114.273C60.9002 113.989 60.9214 113.698 61.0104 113.424C61.0994 113.15 61.2536 112.902 61.4598 112.701L70.9453 103.46C72.0012 102.433 71.4186 100.64 69.9601 100.429Z" fill="#FEC339"/>
<path d="M122.039 100.738L108.936 98.8337C108.651 98.7917 108.381 98.6813 108.148 98.5119C107.915 98.3425 107.727 98.1192 107.599 97.8611L101.74 85.9886C101.593 85.6909 101.366 85.4403 101.084 85.2651C100.802 85.0899 100.477 84.997 100.145 84.997C99.8132 84.997 99.488 85.0899 99.2061 85.2651C98.9243 85.4403 98.6971 85.6909 98.5502 85.9886L92.6902 97.8611C92.5628 98.1194 92.3746 98.3428 92.1418 98.5122C91.9089 98.6817 91.6384 98.792 91.3535 98.8337L78.2505 100.738C76.792 100.95 76.2062 102.742 77.2653 103.771L86.7468 113.013C86.953 113.214 87.1073 113.462 87.1963 113.736C87.2853 114.01 87.3065 114.302 87.2579 114.586L85.0194 127.638C84.7709 129.09 86.2955 130.198 87.5999 129.512L99.3152 123.353C99.5704 123.218 99.8544 123.148 100.143 123.148C100.431 123.148 100.715 123.218 100.97 123.353L112.69 129.514C113.995 130.199 115.521 129.091 115.27 127.639L113.032 114.587C112.983 114.303 113.005 114.012 113.094 113.738C113.183 113.464 113.337 113.216 113.543 113.015L123.025 103.775C124.08 102.742 123.498 100.95 122.039 100.738Z" fill="#FEC339"/>
<path d="M227.668 101.398L214.565 99.4936C214.28 99.4517 214.01 99.3413 213.777 99.1719C213.544 99.0025 213.356 98.7791 213.228 98.521L207.368 86.6484C206.717 85.3267 204.832 85.3267 204.179 86.6484L198.319 98.521C198.192 98.7792 198.004 99.0026 197.771 99.1721C197.538 99.3415 197.268 99.4518 196.983 99.4936L183.88 101.398C182.421 101.609 181.835 103.402 182.894 104.431L192.376 113.673C192.582 113.874 192.736 114.122 192.825 114.396C192.914 114.67 192.936 114.962 192.887 115.246L190.649 128.298C190.399 129.75 191.925 130.858 193.229 130.172L204.949 124.011C205.204 123.876 205.488 123.806 205.777 123.806C206.065 123.806 206.349 123.876 206.604 124.011L218.319 130.172C219.625 130.858 221.15 129.75 220.9 128.298L218.662 115.246C218.613 114.962 218.634 114.67 218.724 114.396C218.813 114.122 218.967 113.874 219.173 113.673L228.655 104.431C229.709 103.402 229.127 101.609 227.668 101.398Z" fill="#FEC339"/>
<path d="M280.179 101.398L267.076 99.4936C266.791 99.4518 266.521 99.3415 266.288 99.1721C266.055 99.0026 265.867 98.7792 265.739 98.521L259.879 86.6484C259.227 85.3267 257.342 85.3267 256.69 86.6484L250.83 98.521C250.703 98.7791 250.515 99.0025 250.282 99.1719C250.049 99.3413 249.779 99.4517 249.494 99.4936L236.391 101.398C234.932 101.609 234.346 103.402 235.405 104.431L244.886 113.673C245.092 113.874 245.247 114.122 245.336 114.396C245.425 114.67 245.446 114.962 245.398 115.246L243.16 128.298C242.91 129.75 244.435 130.858 245.74 130.172L257.455 124.011C257.71 123.876 257.995 123.806 258.283 123.806C258.571 123.806 258.855 123.876 259.11 124.011L270.83 130.172C272.135 130.858 273.661 129.75 273.411 128.298L271.173 115.246C271.124 114.962 271.145 114.67 271.234 114.396C271.323 114.122 271.477 113.874 271.684 113.673L281.166 104.431C282.22 103.402 281.638 101.609 280.179 101.398Z" fill="#FEC339"/>
<path d="M209.335 147.24C209.335 147.24 204.922 148.98 203.22 152C203.22 152 215.669 156.205 223.395 168.439L225.819 168.224C225.819 168.224 218.856 152.294 209.335 147.24Z" fill="#1445BB"/>
<path d="M215.843 146.626C215.843 146.626 224.432 153.288 227.153 164.946L229.104 165.435C229.104 165.435 227.983 151.097 221.913 144.566C221.913 144.567 217.994 144.729 215.843 146.626Z" fill="#F89A21"/>
<path d="M241.293 129.771C235.207 140.419 238.194 159.975 238.194 159.975L240.655 158.708C240.65 142.244 250.069 130.632 250.069 130.632C246.595 128.762 241.293 129.771 241.293 129.771Z" fill="#5BAF7D"/>
<path d="M234.545 134.517C231.322 133.998 227.454 136.224 227.454 136.224C225.586 146.196 233.224 160.669 233.224 160.669L234.803 159.011C230.332 146.147 234.545 134.517 234.545 134.517Z" fill="#9A142F"/>
<path d="M239.961 60.3565C229.369 75.1469 237.121 91.3691 237.121 91.3691C237.297 89.3987 238.992 88.4371 238.992 88.4371C234.228 72.7692 245.073 62.2545 245.073 62.2545C243.316 59.7235 239.961 60.3565 239.961 60.3565Z" fill="#1445BB"/>
<path d="M210.122 50.6495C210.122 50.6495 206.766 51.2785 206.045 54.2702C206.045 54.2702 219.97 60.1342 221.22 76.4625C221.22 76.4625 223.148 76.744 224.027 78.5162C224.025 78.5162 225.359 60.5863 210.122 50.6495Z" fill="#9A142F"/>
<path d="M222.678 88.0062C222.678 88.0062 220.175 87.9346 219.231 89.2548C219.231 89.2548 222.246 90.9704 223.169 95.2304C223.169 95.2304 225.316 92.9502 226.123 93.0721C226.123 93.0721 225.474 89.7792 222.678 88.0062Z" fill="#5BAF7D"/>
<path d="M246.173 81.0744C246.173 81.0744 243.672 81.0036 242.728 82.323C242.728 82.323 245.743 84.0394 246.665 88.2986C246.665 88.2986 248.813 86.0184 249.62 86.1403C249.62 86.1411 248.97 82.8451 246.173 81.0744Z" fill="#5BAF7D"/>
<path d="M263.43 151.72C263.43 151.72 260.928 151.649 259.984 152.969C259.984 152.969 262.999 154.685 263.921 158.944C263.921 158.944 266.069 156.664 266.876 156.786C266.876 156.786 266.226 153.491 263.43 151.72Z" fill="#5BAF7D"/>
<path d="M281.704 132.704C281.704 132.704 279.202 132.633 278.258 133.952C278.258 133.952 281.273 135.668 282.195 139.928C282.195 139.928 284.343 137.648 285.15 137.769C285.15 137.77 284.501 134.474 281.704 132.704Z" fill="#5BAF7D"/>
<path d="M248.219 167.075C248.219 167.075 245.717 167.004 244.773 168.324C244.773 168.324 247.788 170.04 248.711 174.3C248.711 174.3 250.858 172.02 251.665 172.142C251.665 172.142 251.015 168.846 248.219 167.075Z" fill="#5BAF7D"/>
<path d="M196.731 67.013C196.731 67.013 194.229 66.9422 193.285 68.2616C193.285 68.2616 196.3 69.9772 197.222 74.2372C197.222 74.2372 199.37 71.957 200.177 72.0797C200.177 72.0797 199.528 68.786 196.731 67.013Z" fill="#5BAF7D"/>
<path d="M132.082 12.8691C132.082 12.8691 129.58 12.7983 128.637 14.1177C128.637 14.1177 131.651 15.8333 132.574 20.0933C132.574 20.0933 134.722 17.8131 135.528 17.935C135.528 17.9358 134.879 14.6397 132.082 12.8691Z" fill="#1445BB"/>
<path d="M231.298 50.5054C231.298 50.5054 228.876 50.9064 227.692 53.0631C227.692 53.0631 229.906 55.2929 230.477 58.3869C230.477 58.3869 232.477 55.1467 233.429 55.2198C233.429 55.2198 233.342 52.1251 231.298 50.5054Z" fill="#5BAF7D"/>
<path d="M20.0922 148.484C20.0922 148.484 17.6689 148.885 16.4856 151.042C16.4856 151.042 18.6997 153.273 19.2713 156.367C19.2713 156.367 21.2708 153.126 22.223 153.2C22.223 153.2 22.1357 150.104 20.0922 148.484Z" fill="#1445BB"/>
<path d="M210.214 40.4081C210.214 40.4081 208.427 40.3892 206.492 42.1473C206.429 42.2047 209.906 43.9368 210.408 45.6784C210.408 45.6784 212.237 43.4108 213.331 43.3558C213.331 43.3558 211.679 40.8838 210.214 40.4081Z" fill="#F89A21"/>
<path d="M169.468 15.919C169.468 15.919 167.681 15.9001 165.746 17.6582C165.683 17.7156 169.16 19.4478 169.661 21.1893C169.661 21.1893 171.491 18.921 172.585 18.8667C172.588 18.8667 170.937 16.3947 169.468 15.919Z" fill="#5BAF7D"/>
<path d="M247.078 142.526C247.078 142.526 245.403 144.972 246.611 148.651C246.611 148.651 248.809 148.158 250.264 148.651C250.264 148.651 249.164 145.355 250.264 143.02C250.264 143.02 248.836 141.949 247.078 142.526Z" fill="#5BAF7D"/>
<path d="M219.668 121.506C219.668 121.506 221.748 126.145 220.43 129.406C220.43 129.406 224.675 128.319 224.934 127.379C224.934 127.379 225.08 122.705 224.183 121.058C224.183 121.058 222.128 119.537 219.668 121.506Z" fill="#5BAF7D"/>
<path d="M208.01 135.189C208.01 135.189 210.091 139.828 208.773 143.088C208.773 143.088 213.019 142.002 213.277 141.063C213.277 141.063 213.423 136.388 212.526 134.741C212.53 134.741 210.471 133.22 208.01 135.189Z" fill="#1445BB"/>
<path d="M101.056 40.559C101.056 40.559 99.2616 43.2905 98.5295 44.4581L101.579 46.651C101.579 46.651 103.985 43.2826 105.668 42.733C105.67 42.733 104.315 40.618 101.056 40.559Z" fill="#5BAF7D"/>
<path d="M181.307 53.1193C181.307 53.1193 179.513 55.8507 178.78 57.0183L181.83 59.212C181.83 59.212 184.236 55.8429 185.918 55.2933C185.921 55.2933 184.566 53.1782 181.307 53.1193Z" fill="#5BAF7D"/>
<path d="M48.5661 127.333C48.5661 127.333 46.7718 130.066 46.0398 131.233L49.0897 133.426C49.0897 133.426 51.4957 130.058 53.1783 129.508C53.1799 129.508 51.8251 127.393 48.5661 127.333Z" fill="#5BAF7D"/>
<path d="M80.7798 50.8069C80.7798 50.8069 78.995 51.2952 78.7112 55.2162C78.7112 55.2162 80.6871 55.9514 81.9003 57.6725C81.9003 57.6725 83.207 54.0785 84.4949 53.477C84.4965 53.477 83.3902 51.1175 80.7798 50.8069Z" fill="#5BAF7D"/>
<path d="M91.4864 28.8986C91.4864 28.8986 89.7016 29.3876 89.417 33.3087C89.417 33.3087 91.3929 34.0439 92.6061 35.765C92.6061 35.765 93.9128 32.1702 95.2007 31.5695C95.2023 31.5695 94.096 29.2091 91.4864 28.8986Z" fill="#5BAF7D"/>
<path d="M87.8601 72.9572C87.8601 72.9572 89.8706 72.1709 90.8864 72.5923C90.8864 72.5923 94.0433 61.2827 103.207 54.0585C103.207 54.0585 100.352 53.0065 98.2325 52.9578C98.2325 52.9593 90.2362 60.7323 87.8601 72.9572Z" fill="#9A142F"/>
<path d="M86.0659 93.4869C86.0659 93.4869 88.5316 94.4139 88.975 95.5791C88.975 95.5791 90.5153 91.6565 92.7939 89.8748C92.7939 89.8748 91.3079 88.601 89.5097 88.498C89.5066 88.498 85.933 90.6147 86.0659 93.4869Z" fill="#5BAF7D"/>
<path d="M68.1375 61.4878C68.1375 61.4878 76.8091 72.1912 73.3268 88.3646C73.3268 88.3646 75.4072 90.1534 75.0228 91.1952C75.0228 91.1952 81.4096 75.3284 72.2292 60.7668C72.2276 60.7707 69.7855 60.1936 68.1375 61.4878Z" fill="#F89A21"/>
<path d="M45.4198 67.598C45.4198 67.598 43.4251 70.3255 44.4873 73.7678C44.4873 73.7678 46.0984 75.4527 48.3691 75.0863C48.3691 75.0863 47.2275 70.147 49.7569 68.1122C49.7569 68.1122 46.2431 68.3142 45.4198 67.598Z" fill="#1445BB"/>
<path d="M71.1146 108.544C71.1146 108.544 69.1198 111.272 70.1813 114.714C70.1813 114.714 71.7923 116.398 74.0631 116.032C74.0631 116.032 72.9214 111.092 75.4508 109.058C75.4508 109.058 71.937 109.258 71.1146 108.544Z" fill="#5BAF7D"/>
<path d="M101.274 137.683C101.274 137.683 99.5229 137.756 98.0227 140.54C98.0227 140.54 100.395 143.213 100.546 144.258C100.546 144.258 102.879 141.141 104.246 140.872C104.248 140.872 103.144 138.801 101.274 137.683Z" fill="#5BAF7D"/>
<path d="M70.009 169.846C70.009 169.846 68.2587 169.919 66.7585 172.702C66.7585 172.702 69.1307 175.375 69.2817 176.42C69.2817 176.42 71.6145 173.303 72.9818 173.034C72.9818 173.034 71.8771 170.963 70.009 169.846Z" fill="#5BAF7D"/>
<path d="M62.6589 145.51C62.6589 145.51 63.7597 146.672 62.8641 148.833C62.8641 148.833 65.3582 148.739 66.5643 149.573C66.5643 149.573 68.0118 147.293 66.9669 145.253C66.9669 145.253 64.9627 144.093 62.6589 145.51Z" fill="#5BAF7D"/>
<path d="M14.6677 122.075C14.6677 122.075 15.7685 123.237 14.8722 125.397C14.8722 125.397 17.3662 125.303 18.5731 126.137C18.5731 126.137 20.0198 123.857 18.9749 121.818C18.9749 121.818 16.9715 120.657 14.6677 122.075Z" fill="#5BAF7D"/>
<path d="M196.731 166.48C196.731 166.48 197.831 167.641 196.935 169.802C196.935 169.802 199.429 169.708 200.636 170.542C200.636 170.542 202.083 168.262 201.038 166.222C201.038 166.222 199.034 165.062 196.731 166.48Z" fill="#5BAF7D"/>
<path d="M39.5403 153.965C39.5403 153.965 40.6411 155.126 39.7447 157.287C39.7447 157.287 42.2387 157.193 43.4449 158.027C43.4449 158.027 44.8924 155.747 43.8474 153.707C43.8474 153.707 41.844 152.547 39.5403 153.965Z" fill="#5BAF7D"/>
<path d="M68.3018 139.334C68.3018 139.334 74.8372 146.057 71.7574 157.474C71.7574 157.474 72.7434 160.056 72.5822 160.971C72.5822 160.971 77.1205 149.309 72.0884 137.912C72.0884 137.912 69.5739 138.01 68.3018 139.334Z" fill="#1445BB"/>
<path d="M78.0869 132.892C78.0869 132.892 84.2937 146.602 77.4736 159.106C77.4736 159.106 78.4565 161.02 78.1396 162.964C78.1396 162.964 86.1665 154.219 84.1781 132.306C84.1781 132.306 81.3727 131.178 78.0869 132.892Z" fill="#9A142F"/>
<path d="M93.2021 144.494C85.8419 148.962 83.3738 166.171 83.3738 166.171C83.5558 165.716 83.8305 165.305 84.1805 164.963C84.5305 164.62 84.9479 164.355 85.4063 164.183C86.2303 156.428 95.5671 145.761 95.5671 145.761C95.0144 144.392 93.2021 144.494 93.2021 144.494Z" fill="#F89A21"/>
<path d="M105.284 147.352C105.284 147.352 98.5016 146.144 86.5134 168.516C86.5134 168.516 88.7881 167.893 89.9596 169.027C89.9596 169.027 95.0703 157.164 108.964 152.495C108.966 152.495 104.407 149.953 105.284 147.352Z" fill="#5BAF7D"/>
<path d="M175.974 101.088L162.87 99.1834C162.585 99.1418 162.314 99.0315 162.081 98.8621C161.848 98.6926 161.66 98.4691 161.533 98.2108L155.673 86.3382C155.526 86.0406 155.299 85.79 155.017 85.6148C154.735 85.4395 154.41 85.3467 154.078 85.3467C153.746 85.3467 153.421 85.4395 153.139 85.6148C152.857 85.79 152.63 86.0406 152.483 86.3382L146.623 98.2108C146.496 98.4691 146.308 98.6926 146.075 98.8621C145.842 99.0315 145.571 99.1418 145.286 99.1834L132.183 101.088C130.724 101.3 130.138 103.092 131.197 104.121L140.676 113.367C140.882 113.568 141.036 113.816 141.125 114.09C141.214 114.364 141.235 114.655 141.187 114.939L138.949 127.991C138.7 129.444 140.224 130.552 141.529 129.866L153.246 123.701C153.501 123.567 153.785 123.497 154.073 123.497C154.362 123.497 154.646 123.567 154.901 123.701L166.621 129.862C167.925 130.548 169.451 129.44 169.201 127.987L166.963 114.935C166.914 114.651 166.936 114.36 167.025 114.086C167.114 113.812 167.268 113.564 167.474 113.363L176.956 104.121C178.013 103.092 177.432 101.3 175.974 101.088Z" fill="#FEC339"/>
<path d="M153.273 65.8463L153.828 70.8053L161.888 78.9486L168.213 75.25L169.165 58.376L165.21 52.744L153.273 65.8463Z" fill="#16120F"/>
<path d="M165.796 50.0578L162.988 57.9558C165.811 59.3805 170.055 54.3995 168.763 51.2325C167.472 48.0654 165.796 50.0578 165.796 50.0578Z" fill="#F38A8E"/>
<path d="M123.626 159.784L121.559 185.275C132.286 185.039 143.472 184.6 154.975 184.152C164.583 183.778 173.965 183.794 183.033 184.004L181.001 158.197C181.001 158.197 141.39 159.824 123.626 159.784Z" fill="#FDC871"/>
<path d="M121.077 70.2698L125.114 78.9486C125.114 78.9486 137.967 79.3056 137.967 78.9486C137.967 78.5916 141.512 66.4801 141.512 66.4801L132.053 42.7066L121.077 70.2698Z" fill="#16120F"/>
<path d="M155.518 67.7434L136.209 61.4879C136.209 61.4879 140.839 71.1298 136.519 81.8521C132.199 92.5743 138.47 99.738 138.47 99.738L153.273 104.954L159.097 93.966L160.219 81.8521L156.616 80.2536C156.616 80.2536 154.01 74.8284 155.518 67.7434Z" fill="#ECB7B1"/>
<path d="M147.61 73.6749C153.676 73.2904 157.275 65.8461 157.275 65.8461L137.211 64.2531C137.211 64.2531 141.544 74.0594 147.61 73.6749Z" fill="#F38A8E"/>
<path d="M137.765 26.5704L131.705 35.1407L131.783 51.1073C131.783 51.1073 133.993 68.8368 147.857 69.7025C161.721 70.5681 165.39 53.6564 165.39 53.6564L166.775 43.8195L156.494 26.5704H137.765Z" fill="#FFD4D3"/>
<path d="M187.793 99.6575C185.699 102.034 182.628 103.801 178.667 103.746C168.451 103.611 170.154 95.0972 170.813 93.1646C171.471 91.2319 169.11 91.6345 167.885 87.189C167.107 84.3632 165.037 81.2676 163.632 79.3837L163.5 79.2752C163.5 79.2752 163.422 79.1463 163.281 78.9214C163.075 78.5951 162.735 78.0691 162.299 77.437C160.616 74.9995 157.496 70.9896 155.105 70.8607C155.105 70.8607 154.996 76.9023 156.058 78.6612C157.119 80.42 156.558 82.4352 154.605 86.203C153.47 88.3967 153.667 90.7869 154.049 92.5033C154.326 93.7401 154.7 94.6262 154.744 94.8433C154.85 95.3583 153.994 102.755 152.352 103.34C152.309 103.356 152.265 103.366 152.221 103.372C150.534 103.608 147.214 97.6494 146.447 95.3087C145.661 92.9043 140.725 89.3127 140.5 89.26C140.275 89.2073 134.926 82.9762 137.049 80.6323C137.049 80.6323 138.932 75.6521 138.464 71.3678C138.464 71.3678 136.122 72.9018 133.032 77.0053C133.032 77.0053 125.218 81.1631 123.351 81.8503C122.124 82.3016 116.269 84.3608 112.153 89.3913C110.008 92.0119 108.335 95.4369 108.032 99.862C107.147 112.783 105.925 134.13 105.925 134.13C105.925 134.13 105.362 137.562 107.838 137.768C107.838 137.768 104.602 141.315 108.923 142.941C108.923 142.941 107.239 150.213 113.484 150.21L124.561 134.697C124.561 134.697 120.442 156.888 122.31 158.646C124.177 160.404 124.382 163.233 149.024 162.643C151.747 162.577 154.292 162.522 156.665 162.464C175.744 162.003 182.36 161.853 180.769 155.003C178.981 147.306 185.365 149.336 185.365 149.336L187.513 155.573C187.513 155.573 190.73 157.129 194.134 153.723C197.538 150.316 197.722 140.644 195.168 136.544L187.793 99.6575Z" fill="#654DE4"/>
<path d="M187.915 99.6113C185.82 101.989 182.75 103.755 178.788 103.7C168.573 103.565 170.275 95.051 170.934 93.1176C171.524 91.3933 169.702 91.5285 168.432 88.4C168.266 87.9868 168.123 87.5641 168.006 87.1341L167.998 87.127C167.872 87.0138 166.336 85.6575 164.566 84.8406C163.93 84.5481 163.264 84.3248 162.623 84.2532C162.336 84.2211 162.046 84.2169 161.758 84.2407C159.674 84.4136 158.073 86.0679 157.084 87.9958C156.734 88.6799 156.317 89.3726 155.91 90C155.202 91.0961 154.516 91.9948 154.267 92.3179L154.461 92.6615C154.461 92.6615 154.496 92.8974 154.534 93.3C154.714 95.1744 154.995 100.72 152.465 103.567C152.386 103.655 152.316 103.742 152.251 103.828L152.202 104.125L152.865 106.5L155.725 116.737C155.725 116.737 156.175 118.152 156.687 120.881C157.199 123.609 156.878 145.057 156.878 145.057C156.878 145.057 157.021 145.783 157.185 147.002C158.522 156.886 168.257 163.404 177.856 160.696C181.772 159.591 181.463 156.777 181.219 153.413C180.646 145.526 187.637 151.845 187.637 151.845V155.522C187.637 155.522 190.854 157.077 194.257 153.67C197.66 150.263 197.846 140.591 195.292 136.493L187.915 99.6113Z" fill="#5440BE"/>
<path d="M154.939 104.159C154.692 104.407 154.653 105.121 155.229 104.915C155.804 104.709 156.172 103.544 156.172 103.544L155.516 102.454C155.516 102.454 155.186 103.912 154.939 104.159Z" fill="#FDC871"/>
<path d="M159.195 101.331L158.986 103.067L160.047 104.175C160.047 104.175 160.377 103.809 160.295 103.332C160.212 102.856 159.195 101.331 159.195 101.331Z" fill="#FDC871"/>
<path d="M154.604 97.2393L156.175 99.6429L156.312 97.3565L154.768 95.1125L154.604 97.2393Z" fill="#F38A8E"/>
<path d="M173.147 167.979C174.548 175.637 182.734 180.095 182.734 180.095L181.651 166.171C179.774 167.324 173.147 167.979 173.147 167.979Z" fill="#EB8323"/>
<path d="M122.031 180.601C122.031 180.601 130.219 176.143 131.619 168.486C131.619 168.486 124.992 167.831 123.115 166.677L122.031 180.601Z" fill="#EB8323"/>
<path d="M153.31 134.297C138.44 134.297 126.363 129.062 126.363 132.549C126.363 136.037 138.187 145.065 153.057 145.065C167.928 145.065 180.19 136.567 180.19 133.079C180.19 129.59 168.18 134.297 153.31 134.297Z" fill="#5440BE"/>
<path d="M146.567 137.147C136.605 134.462 146.252 141.273 154.092 142.101C161.932 142.929 172.385 139.24 172.938 137.986L171.703 135.613C171.703 135.613 156.527 139.833 146.567 137.147Z" fill="#322672"/>
<path d="M119.697 106.605C120.307 95.2041 113.507 120.242 120.243 132.152L122.416 131.838C122.416 131.838 119.089 118.006 119.697 106.605Z" fill="#5440BE"/>
<path d="M108.929 142.941C108.361 145.8 108.929 147.002 108.929 147.002C110.1 141.891 119.973 135.921 119.973 135.921C119.973 135.921 121.415 134.825 122.159 134.279C122.151 134.242 122.146 134.201 122.14 134.165C113.73 135.128 108.929 142.941 108.929 142.941Z" fill="#5440BE"/>
<path d="M106.437 137.034C106.814 137.788 107.844 137.768 107.844 137.768C111.116 133.752 118.34 132.305 118.34 132.305C113.909 131.067 106.345 136.85 106.437 137.034Z" fill="#5440BE"/>
<path d="M119.779 131.351C117.122 131.801 118.797 132.132 118.797 132.132L119.977 132.199C119.908 131.908 122.555 132.08 122.774 133.838L123.837 133.037C123.837 133.037 122.436 130.901 119.779 131.351Z" fill="#5440BE"/>
<path d="M127.832 88.4976C129.64 86.7835 131.873 85.667 133.886 86.1828C131.766 85.4547 128.838 86.837 127.832 88.4976Z" fill="#F1B43C"/>
<path d="M167.998 86.9488C167.873 86.8293 166.425 85.4738 164.566 84.6631C163.689 84.2787 162.722 84.016 161.76 84.0624C159.676 84.2354 158.075 85.8905 157.087 87.8176C156.736 88.5017 156.319 89.1944 155.912 89.8218C155.204 90.9179 154.519 91.8166 154.27 92.1397L154.464 92.4841C154.464 92.4841 154.498 92.72 154.537 93.1218L154.604 93.279C154.604 93.279 158.507 91.1105 159.195 88.9546C159.882 86.7986 165.54 86.9889 166.556 87.8145C167.022 88.1919 167.764 88.2579 168.432 88.2186C168.265 87.8055 168.123 87.3828 168.006 86.9527L167.998 86.9488Z" fill="#322672"/>
<path d="M153.365 58.6555C152.657 58.7027 151.635 58.8237 150.162 58.8371C148.185 58.8552 145.406 57.7238 143.746 56.9501C142.892 56.5569 142.335 56.2527 142.335 56.2527C141.28 55.7227 142.005 57.6263 142.747 58.9401C143.488 60.254 145.96 63.5004 150.08 62.5042C154.2 61.508 155.243 59.5479 154.755 58.9401C154.508 58.6358 154.099 58.6059 153.365 58.6555Z" fill="#F38A8E"/>
<path d="M143.746 56.9534L143.58 57.0171C143.58 57.0171 144.935 60.4043 149.163 60.5883C150.991 60.6669 152.378 59.7376 153.363 58.6557C152.655 58.7029 151.633 58.8239 150.16 58.8373C148.185 58.8554 145.406 57.724 143.746 56.9534Z" fill="white"/>
<path d="M142.138 43.1326C141.452 43.2001 140.806 43.4899 140.299 43.9581C140.189 44.0561 140.09 44.1646 140.001 44.2821C139.974 44.3254 139.965 44.3778 139.976 44.4278C139.987 44.4777 140.017 44.5214 140.06 44.5492C140.103 44.5771 140.155 44.587 140.206 44.5767C140.256 44.5664 140.3 44.5369 140.328 44.4944C140.339 44.4826 140.35 44.4684 140.341 44.4802L140.328 44.4944C140.319 44.5062 140.311 44.5172 140.324 44.5015C140.338 44.4857 140.35 44.4692 140.364 44.4535C140.412 44.3977 140.464 44.3434 140.518 44.2915C140.553 44.2569 140.589 44.2239 140.627 44.1909L140.69 44.1366L140.721 44.1115L140.751 44.0887C140.734 44.1012 140.741 44.0957 140.751 44.0887C140.758 44.0824 140.767 44.0761 140.751 44.0887L140.769 44.0745L140.81 44.0446L140.896 43.9841C140.957 43.9432 141.019 43.9055 141.082 43.8685C141.144 43.8316 141.22 43.7899 141.291 43.7592L141.382 43.7183L141.422 43.7026C141.442 43.694 141.464 43.6861 141.484 43.679C141.657 43.6157 141.837 43.5694 142.019 43.5406L142.055 43.5351C142.032 43.5351 142.048 43.5351 142.055 43.5351L142.119 43.5273C142.175 43.5218 142.231 43.5178 142.288 43.5147C142.625 43.5 142.962 43.5415 143.285 43.6374C143.98 43.8339 144.61 44.2247 145.172 44.6729C145.21 44.7081 145.26 44.7278 145.311 44.7278C145.363 44.7278 145.412 44.7081 145.45 44.6729C145.486 44.6357 145.507 44.5857 145.507 44.5337C145.507 44.4817 145.486 44.4317 145.45 44.3945C144.518 43.6531 143.366 43.0138 142.138 43.1326Z" fill="black"/>
<path d="M140.751 44.0889C140.757 44.0831 140.76 44.0807 140.751 44.0889C140.742 44.0972 140.744 44.098 140.751 44.0889Z" fill="black"/>
<path d="M140.341 44.4804C140.35 44.4682 140.341 44.4804 140.328 44.4949L140.341 44.4804Z" fill="black"/>
<path d="M159.772 45.8102C159.118 45.6341 158.425 45.6749 157.796 45.9266C157.659 45.9781 157.528 46.042 157.403 46.1177C157.191 46.2545 157.388 46.5949 157.602 46.4573C157.686 46.405 157.775 46.3595 157.867 46.3213L157.879 46.3158C157.855 46.326 157.866 46.3213 157.879 46.3158C157.89 46.3111 157.902 46.3056 157.879 46.3158L157.894 46.3095L157.972 46.2796C158.028 46.2584 158.085 46.2395 158.141 46.2214C158.273 46.181 158.408 46.1495 158.544 46.1271L158.599 46.1184H158.614C158.655 46.1137 158.696 46.109 158.737 46.1059C158.822 46.0996 158.906 46.0964 158.991 46.0972C159.076 46.098 159.165 46.1027 159.251 46.1114L159.318 46.1184C159.328 46.1184 159.354 46.1184 159.318 46.1184L159.352 46.1239C159.401 46.1318 159.45 46.1405 159.499 46.1507C159.931 46.2437 160.337 46.4317 160.687 46.7011C161.267 47.1272 161.717 47.7287 162.083 48.3459C162.212 48.5629 162.555 48.3656 162.422 48.147C161.816 47.1233 160.958 46.1349 159.772 45.8102Z" fill="black"/>
<path d="M157.876 46.3159C157.888 46.3105 157.902 46.3043 157.876 46.3159C157.85 46.3274 157.864 46.3213 157.876 46.3159Z" fill="black"/>
<path d="M176.725 106.999C175.845 107.558 176.561 109.211 176.561 109.211C178.117 119.996 177.122 127.855 177.122 127.855L179.072 131.021C179.072 131.021 179.808 128.741 179.548 120.261C179.289 111.78 177.605 106.438 176.725 106.999Z" fill="#322672"/>
<path d="M156.266 103.56C156.266 103.56 155.533 105.024 155.106 104.79C154.679 104.557 155.518 102.619 155.518 102.619L153.976 100.362C153.857 100.831 153.71 101.292 153.537 101.743C153.237 102.324 152.88 102.874 152.471 103.385C152.471 103.385 158.883 108.96 159.199 108.92C159.515 108.88 159.675 108.754 159.101 107.704C158.527 106.655 156.266 103.56 156.266 103.56Z" fill="#F38A8E"/>
<path d="M166.58 93.9847C166.664 93.8132 166.784 93.6617 166.932 93.5405C166.773 93.6501 166.65 93.8048 166.58 93.9847Z" fill="#FFD4D3"/>
<path d="M167.38 101.637C167.388 101.637 167.417 101.637 167.439 101.582C167.423 101.604 167.403 101.623 167.38 101.637Z" fill="#FFD4D3"/>
<path d="M174.2 114.075C174.474 110.206 173.123 105.836 173.123 105.836C173.123 105.836 169.988 99.506 168.726 98.0852C167.463 96.6645 168.359 93.1703 167.133 93.4463C167.057 93.4629 166.985 93.4924 166.92 93.5336C166.986 93.5336 166.343 95.9859 166.92 97.9571C167.501 99.9534 168.31 102.369 167.364 101.635C167.306 101.668 167.24 101.681 167.174 101.673C166.222 101.608 163.54 96.5733 163.54 96.5733C163.604 95.8129 163.566 95.0471 163.426 94.297C163.19 93.0752 162.505 92.5673 162.107 92.8283C161.722 93.0799 161.906 94.0792 161.918 94.1437C161.852 94.0446 160.043 91.3132 159.521 90.6629C158.999 90.0127 158.295 89.6746 158.165 90.2871C158.036 90.8996 158.368 91.689 158.368 91.689C158.359 91.6884 158.349 91.6884 158.339 91.689C158.234 91.6991 158.136 91.7475 158.063 91.825C157.99 91.9133 157.951 92.0249 157.953 92.1395C157.953 92.2182 157.941 92.3479 157.927 92.5169C157.858 93.3614 157.671 95.1045 157.671 95.1045C157.671 95.1045 155.076 91.4091 154.59 90.6763C154.104 89.9435 152.82 89.6541 152.875 90.475C152.93 91.2959 154.671 94.6367 154.716 94.9811C154.761 95.3255 154.515 97.1708 154.515 97.1708C154.515 97.1708 153.662 95.6384 152.706 94.7845C151.751 93.9306 150.641 93.771 150.914 94.7845C151.187 95.798 153.961 100.355 153.961 100.355L155.504 102.612C155.504 102.612 154.663 104.55 155.092 104.783C155.52 105.017 156.252 103.553 156.252 103.553C156.252 103.553 158.509 106.652 159.082 107.702C159.655 108.752 159.497 108.876 159.18 108.917C158.864 108.958 152.453 103.383 152.453 103.383C151.918 102.854 151.474 102.804 151.22 102.84C151.142 102.848 151.065 102.871 150.994 102.907C150.926 102.541 151.898 98.9989 151.83 98.189C151.79 97.6984 151.57 97.3171 151.319 97.1213C150.991 96.8665 150.611 96.9271 150.496 97.4665C150.367 98.079 149.305 100.506 147.808 104.7C146.311 108.894 147.475 112.375 147.41 113.562C147.346 114.749 130.995 127.937 121.559 134.665C113.382 140.499 113.304 147.907 113.425 149.766C113.444 150.049 113.467 150.204 113.467 150.204C115.573 157.312 121.003 156.258 121.003 156.258C141.078 148.658 153.765 121.712 153.765 121.712C153.894 121.629 154.022 121.539 154.149 121.445L154.248 121.366C154.3 121.328 154.352 121.288 154.406 121.246C154.44 121.219 154.473 121.192 154.507 121.168C154.808 120.92 155.105 120.646 155.395 120.354L155.466 120.282L155.608 120.135C155.806 119.928 156.002 119.714 156.191 119.493L156.296 119.369C156.393 119.256 156.49 119.14 156.585 119.023C156.643 118.951 156.701 118.879 156.758 118.806C156.889 118.643 157.016 118.479 157.141 118.312C157.212 118.218 157.282 118.124 157.351 118.031C157.47 117.868 157.587 117.705 157.702 117.543L157.809 117.386C157.845 117.335 157.88 117.283 157.915 117.233C157.949 117.183 157.985 117.132 158.018 117.081C158.158 116.877 158.291 116.676 158.419 116.479C158.512 116.334 158.604 116.191 158.692 116.051C158.885 115.746 159.061 115.455 159.221 115.186C159.241 115.154 159.259 115.122 159.277 115.091C159.323 115.012 159.365 114.941 159.408 114.869C159.45 114.796 159.486 114.727 159.528 114.66C159.593 114.547 159.652 114.442 159.709 114.345C159.738 114.293 159.765 114.244 159.787 114.197C159.835 114.112 159.878 114.035 159.916 113.961C159.981 113.841 160.036 113.739 160.079 113.659C160.147 113.531 160.187 113.454 160.195 113.437L163.477 115.593C177.311 155.65 186.388 155.783 189.767 155.618C191.302 155.54 192.889 154.719 193.913 153.088C195.143 151.134 195.564 148.02 194.114 143.653C191.465 135.638 174.2 114.075 174.2 114.075Z" fill="#FFD4D3"/>
<path d="M158.357 91.6939C158.253 91.7108 158.157 91.7584 158.081 91.8307C158.007 91.9185 157.968 92.0304 157.971 92.1452C157.971 92.2238 157.959 92.3536 157.945 92.5226L159.803 95.7046V94.5362L158.388 91.6915C158.378 91.6916 158.367 91.6924 158.357 91.6939Z" fill="#F38A8E"/>
<path d="M157.008 100.864L158.986 103.071L159.195 101.331L157.274 98.822L157.008 100.864Z" fill="#F38A8E"/>
<path d="M161.431 99.1059L163.086 101.816L163.171 101.403L161.431 97.9595V99.1059Z" fill="#F38A8E"/>
<path d="M150.812 104.05C150.812 104.05 150.43 103.249 150.969 102.912L150.976 102.672L150.818 102.709C150.818 102.709 149.291 103.45 151.617 105.933C153.942 108.415 154.204 109.245 159.951 113.957L160.193 113.398C160.193 113.398 152.459 107.145 150.812 104.05Z" fill="#F38A8E"/>
<path d="M159.904 104.028C159.904 104.028 160.276 104.583 160.423 104.559C160.57 104.536 160.674 104.05 160.219 103.235L159.904 104.028Z" fill="#F38A8E"/>
<path d="M153.953 120.837C151.771 122.228 143.569 140.922 125.223 152.721C119.259 156.558 115.631 154.413 113.445 149.77C113.464 150.053 113.488 150.208 113.488 150.208C115.592 157.316 121.022 156.262 121.022 156.262C141.098 148.662 153.785 121.715 153.785 121.715C156.737 119.801 159.507 114.787 160.1 113.666L159.647 113.295C159.379 113.512 156.135 119.448 153.953 120.837Z" fill="#F38A8E"/>
<path d="M164.882 117.194C164.443 116.114 163.747 115.676 163.502 115.6C177.336 155.657 186.413 155.79 189.792 155.625C191.328 155.547 192.914 154.726 193.939 153.095C181.424 164.126 165.318 118.27 164.882 117.194Z" fill="#F38A8E"/>
<path d="M141.099 31.6578C136.968 31.6578 133.269 40.5559 133.269 40.5559L133.977 40.721C133.985 40.6974 137.333 34.7706 142.68 34.4042C148.026 34.0378 157.491 28.9224 157.491 28.9224L155.423 25.1389C155.423 25.1389 145.231 31.6578 141.099 31.6578Z" fill="#F38A8E"/>
<path d="M156.911 28.9648C164.538 39.4009 165.104 54.2306 165.104 54.2306L166.806 53.9287L168.535 48.2432L158.707 27.235L156.911 28.9648Z" fill="#F38A8E"/>
<path d="M189.716 88.1019C187.634 85.6912 188.815 84.8782 188.639 83.0989C188.58 82.5765 188.434 82.0677 188.206 81.594C186.948 78.842 180.315 79.0669 178.338 69.8401C178.13 68.8675 178.023 67.659 177.979 66.2618C177.92 64.5258 177.949 62.4988 177.97 60.2768C178.1 47.3097 178.025 27.6933 159.265 20.3346C159.265 20.3346 132.426 11.898 124.376 43.9469C123.328 48.1212 122.142 51.6177 120.897 54.5858C119.971 56.819 118.894 58.9868 117.674 61.0741C110.186 73.8414 103.033 73.085 112.045 89.091C112.084 89.1594 112.124 89.227 112.161 89.2954C116.277 84.2633 122.132 82.2057 123.359 81.7536C125.226 81.0664 133.04 76.9086 133.04 76.9086C133.04 76.9086 128.79 71.4386 131.128 57.1286C133.467 42.8186 134.847 34.8915 141.098 33.6398C147.349 32.388 152.633 31.2024 156.911 28.0369C156.911 28.0369 172.43 47.0519 162.297 77.3269C162.734 77.9559 163.073 78.4859 163.279 78.8114C163.39 78.956 163.507 79.1109 163.63 79.2737C165.036 81.1607 167.105 84.2531 167.884 87.0789C168.694 90.0251 170.007 90.8459 170.605 91.6235C170.912 92.0166 171.034 92.4098 170.811 93.0584C170.593 93.7314 170.443 94.4244 170.363 95.1271C169.979 98.328 170.695 103.535 178.666 103.641C182.626 103.693 185.697 101.927 187.791 99.5522C191.101 95.7954 191.972 90.5102 190.053 88.473C189.934 88.348 189.821 88.2222 189.716 88.1019Z" fill="#332114"/>
<path d="M128.96 41.432C126.13 43.3544 126.908 49.8521 130.049 50.2279L132.082 42.0964C132.082 42.0964 131.789 39.5096 128.96 41.432Z" fill="#FFD4D3"/>
<path d="M129.22 42.9346C129.151 43.3277 130.006 43.713 129.92 44.5779C129.833 45.4428 129.509 46.608 129.097 46.63C128.685 46.6521 128.506 47.2284 129.22 47.2693C129.22 47.2693 130.387 47.1733 130.497 44.592C130.607 42.0107 129.288 42.5407 129.22 42.9346Z" fill="#F38A8E"/>
<path d="M188.639 83.0959C188.122 83.8987 183.992 86.6569 182.348 87.2206C178.668 88.4841 187.06 90.7997 189.714 88.0989C187.634 85.6906 188.815 84.8823 188.639 83.0959Z" fill="#261C15"/>
<path d="M140.493 92.6794C138.223 93.045 137.711 91.2877 137.555 90.4566C137.479 90.0802 137.354 89.7152 137.184 89.3708C136.779 88.5279 136.009 87.4775 134.61 86.5402C134.385 86.3905 134.142 86.2705 133.887 86.1833C131.874 85.6651 129.637 86.784 127.833 88.498C126.707 90.3591 123.666 91.3695 123.666 91.3695C125.993 91.5616 128.332 91.5616 130.659 91.3695C134.406 91.0479 137.384 94.3282 139.655 94.5365C141.926 94.7449 147.268 97.2389 147.268 97.2389L146.449 95.3039C146.449 95.3039 142.764 92.313 140.493 92.6794Z" fill="#322672"/>
<path d="M142.251 90.6745C140.796 89.6578 138.9 87.7905 137.252 84.6328C135.604 81.4752 137.211 79.9066 137.211 79.9066C138.061 77.8505 138.338 73.6299 138.427 71.3678H138.372L138.379 71.5321C137.582 71.1752 133.037 77.0053 133.037 77.0053C133.037 77.0053 125.004 87.8133 123.682 91.2146C123.682 91.2146 124.909 91.2736 127.829 88.4973C129.637 86.7833 131.87 85.6668 133.883 86.1826C135.129 86.5026 136.288 87.45 137.207 89.271L137.18 89.3709C137.35 89.7153 137.475 90.0803 137.551 90.4567C137.708 91.2878 138.219 93.0451 140.489 92.6795C142.76 92.3138 146.441 95.3032 146.441 95.3032C146.441 95.3032 146.448 95.2938 146.459 95.2741C146.41 95.1334 146.386 95.0382 146.386 95.0382C146.19 94.0523 143.707 91.6911 142.251 90.6745Z" fill="#5440BE"/>
<path d="M154.529 97.1784L156.174 99.6425L156.231 97.2381L154.729 94.9879L154.529 97.1784Z" fill="#F38A8E"/>
<path d="M166.939 93.536H166.935C166.787 93.6573 166.667 93.8088 166.583 93.9803C166.577 93.9916 166.572 94.0034 166.568 94.0156C166.229 94.8373 166.365 96.3367 166.489 97.3384C166.522 97.6049 166.554 97.8361 166.576 98.0106C166.625 98.4038 166.855 99.0226 167.074 99.6366C167.515 101.023 167.5 101.445 167.443 101.576C167.42 101.628 167.392 101.631 167.383 101.631C168.327 102.365 167.521 99.9496 166.939 97.9532C166.361 95.9907 167.006 93.536 166.939 93.536Z" fill="#F38A8E"/>
<path d="M166.486 97.3428C166.361 96.3411 166.225 94.8417 166.564 94.0201C166.186 94.7945 166.25 96.0691 166.486 97.3428Z" fill="#F38A8E"/>
<path d="M155.458 89.7004C154.754 89.5636 154.829 90.3051 154.829 90.3051V91.0127L156.314 93.1529C156.314 93.1529 156.161 89.8372 155.458 89.7004Z" fill="#F38A8E"/>
<path d="M151.844 98.1999C151.804 97.7093 151.584 97.328 151.333 97.1322C151.354 97.1692 152.047 98.3957 150.625 102.844L150.726 103.026L151.231 102.847C151.152 102.855 151.075 102.878 151.004 102.914C150.94 102.548 151.909 99.0059 151.844 98.1999Z" fill="#F38A8E"/>
<path d="M162.301 100.178L163.028 101.719C163.028 101.719 163.59 102.612 163.691 102.392C163.791 102.172 162.553 100.178 162.553 100.178H162.301Z" fill="#F38A8E"/>
<path d="M156.233 97.2386V97.3173C156.233 97.3173 156.168 99.4402 156.104 99.5385L157.01 100.866C157.01 100.866 157.294 99.5841 157.276 98.8214L156.233 97.2386Z" fill="#E15F3D"/>
<path d="M159.799 94.5361L159.663 98.2001L161.092 100.571C161.092 100.571 161.683 99.0548 161.613 98.3173L159.799 94.5361Z" fill="#E15F3D"/>
<path d="M162.663 102.202C162.663 102.202 163.499 102.753 163.71 102.618C163.92 102.484 163.002 100.922 163.002 100.922L162.663 102.202Z" fill="#E15F3D"/>
<path d="M155.347 102.855C155.2 103.134 154.718 104.485 155.09 104.82C155.463 105.156 156.248 103.552 156.248 103.552L155.5 102.609C155.5 102.609 155.493 102.575 155.347 102.855Z" fill="#E15F3D"/>
<path d="M158.986 103.067L159.904 104.024L160.218 103.231C160.218 103.231 160.168 102.916 159.196 101.327L158.986 103.067Z" fill="#E15F3D"/>
<path d="M173.123 105.834C173.123 105.834 174.713 111.81 173.724 112.91C173.038 113.673 177.195 118.448 179.848 121.545C177.656 118.473 174.519 113.754 174.466 113.029C174.383 111.904 174.534 108.622 173.123 105.834Z" fill="#F38A8E"/>
<path d="M179.847 121.544C181.06 123.245 181.984 124.441 181.934 124.175C181.892 123.949 181.015 122.91 179.847 121.544Z" fill="#F38A8E"/>
<path d="M144.702 37.3353C142.85 36.6764 140.299 37.2921 140.299 37.2921C139.277 37.4682 137.901 38.0335 138.138 38.3142C138.376 38.5949 141.854 38.1074 143.002 38.1404C144.15 38.1735 146.554 37.995 144.702 37.3353Z" fill="#261C15"/>
<path d="M161.399 40.0008C161.399 40.0008 159.405 38.7279 157.625 38.9425C155.846 39.1572 157.844 39.9474 158.835 40.2006C159.825 40.4537 162.65 41.8281 162.938 41.5962C163.227 41.3642 162.223 40.438 161.399 40.0008Z" fill="#261C15"/>
<path d="M150.913 49.9157C150.7 50.0431 149.091 52.9255 149.471 53.9257C149.852 54.9258 151.105 55.0264 151.391 53.1543C151.677 51.2822 151.539 49.5454 150.913 49.9157Z" fill="#F38A8E"/>
<path d="M156.43 169.258C150.187 169.827 149.385 168.545 149.385 168.545C148.8 170.717 154.433 170.067 156.297 170.007C158.162 169.946 163.977 169.563 163.98 169.049C163.983 168.535 162.671 168.69 156.43 169.258Z" fill="#EB8323"/>
<path d="M156.1 166.932C156.52 165.917 156.039 164.755 155.025 164.335C154.01 163.915 152.848 164.396 152.428 165.41C152.008 166.425 152.489 167.587 153.503 168.007C154.518 168.428 155.68 167.946 156.1 166.932Z" fill="#F89A21"/>
<path d="M188.746 129.536C192.289 131.732 195.272 136.195 195.294 136.316L194.917 134.429C191.998 129.576 185.203 127.338 188.746 129.536Z" fill="#322672"/>
<path d="M153.42 170.144C154.077 170.899 153.712 179.317 153.712 179.317C153.698 179.679 153.749 180.452 154.262 179.683C154.776 178.914 154.626 170.096 154.553 169.76C154.48 169.424 152.762 169.39 153.42 170.144Z" fill="#EB8323"/>
<path d="M156.111 180.095C155.47 180.173 154.234 180.835 154.559 177.449L153.718 179.594C153.718 179.594 153.842 181.202 155.416 180.873C156.99 180.544 157.303 179.555 157.1 179.372C156.897 179.189 156.752 180.011 156.111 180.095Z" fill="#EB8323"/>
<path d="M167.477 162.779C167.473 162.698 167.452 162.618 167.417 162.544C167.381 162.471 167.332 162.405 167.271 162.351C167.21 162.297 167.139 162.255 167.062 162.228C166.985 162.201 166.903 162.19 166.822 162.195L166.05 162.239C165.885 162.249 165.731 162.323 165.622 162.446C165.512 162.569 165.456 162.731 165.465 162.895L165.77 168.163C165.779 168.328 165.854 168.482 165.977 168.591C166.1 168.701 166.261 168.757 166.425 168.748L167.198 168.703C167.279 168.698 167.359 168.678 167.432 168.642C167.506 168.607 167.571 168.557 167.626 168.496C167.68 168.435 167.722 168.364 167.748 168.287C167.775 168.21 167.787 168.128 167.782 168.047L167.477 162.779Z" fill="#EB8323"/>
<path d="M167.108 162.804C167.103 162.723 167.083 162.643 167.047 162.569C167.012 162.496 166.962 162.43 166.901 162.376C166.84 162.322 166.769 162.28 166.692 162.253C166.615 162.226 166.534 162.215 166.452 162.22L165.68 162.264C165.516 162.274 165.362 162.348 165.252 162.471C165.143 162.594 165.086 162.755 165.096 162.92L165.4 168.192C165.41 168.357 165.484 168.511 165.607 168.62C165.73 168.73 165.891 168.786 166.056 168.777L166.828 168.732C166.909 168.727 166.989 168.707 167.063 168.671C167.136 168.636 167.202 168.586 167.256 168.525C167.311 168.464 167.352 168.393 167.379 168.316C167.406 168.239 167.417 168.158 167.412 168.076L167.108 162.804Z" fill="#FDC871"/>
<path d="M140.893 162.643L140.122 162.597C139.957 162.586 139.795 162.642 139.672 162.751C139.549 162.86 139.474 163.014 139.463 163.178L139.143 168.45C139.134 168.615 139.189 168.776 139.299 168.9C139.408 169.023 139.562 169.098 139.726 169.108L140.498 169.155C140.663 169.165 140.824 169.109 140.948 169C141.071 168.89 141.146 168.737 141.156 168.572L141.476 163.304C141.481 163.222 141.47 163.14 141.444 163.063C141.417 162.985 141.376 162.914 141.322 162.852C141.268 162.791 141.202 162.741 141.128 162.705C141.055 162.669 140.975 162.648 140.893 162.643Z" fill="#EB8323"/>
<path d="M141.244 162.666L140.472 162.619C140.391 162.614 140.309 162.625 140.232 162.652C140.155 162.678 140.084 162.72 140.023 162.774C139.962 162.828 139.912 162.893 139.876 162.967C139.841 163.04 139.82 163.12 139.815 163.201L139.495 168.473C139.49 168.554 139.501 168.636 139.527 168.713C139.554 168.79 139.595 168.861 139.649 168.922C139.704 168.983 139.769 169.033 139.842 169.069C139.916 169.104 139.995 169.125 140.077 169.13L140.849 169.177C141.013 169.187 141.175 169.132 141.298 169.022C141.422 168.913 141.497 168.759 141.507 168.595L141.827 163.327C141.832 163.245 141.821 163.163 141.795 163.086C141.768 163.008 141.727 162.937 141.673 162.875C141.619 162.814 141.553 162.764 141.479 162.728C141.406 162.692 141.326 162.671 141.244 162.666Z" fill="#FDC871"/>
<path d="M126.95 162.159L126.243 167.393C126.197 167.733 126.435 168.046 126.775 168.092L127.542 168.195C127.882 168.241 128.194 168.003 128.24 167.663L128.948 162.429C128.994 162.089 128.756 161.777 128.416 161.731L127.649 161.627C127.309 161.581 126.996 161.819 126.95 162.159Z" fill="#EB8323"/>
<path d="M178.092 161.454C178.083 161.373 178.059 161.294 178.02 161.223C177.982 161.151 177.929 161.087 177.866 161.036C177.802 160.984 177.73 160.946 177.651 160.923C177.573 160.899 177.491 160.892 177.41 160.9L176.641 160.979C176.56 160.987 176.481 161.011 176.409 161.05C176.338 161.089 176.274 161.141 176.223 161.205C176.171 161.268 176.133 161.341 176.109 161.419C176.086 161.497 176.078 161.579 176.087 161.66L176.627 166.913C176.635 166.994 176.659 167.073 176.698 167.145C176.737 167.217 176.789 167.28 176.852 167.332C176.916 167.383 176.988 167.422 177.067 167.445C177.145 167.468 177.227 167.476 177.308 167.468L178.078 167.389C178.241 167.371 178.39 167.289 178.493 167.161C178.596 167.034 178.645 166.87 178.628 166.707L178.092 161.454Z" fill="#EB8323"/>
<path d="M177.08 160.955L176.31 161.022C175.968 161.051 175.715 161.352 175.744 161.694L176.197 166.956C176.226 167.298 176.527 167.551 176.869 167.521L177.64 167.455C177.982 167.426 178.235 167.125 178.205 166.783L177.753 161.521C177.723 161.179 177.422 160.926 177.08 160.955Z" fill="#FDC871"/>
<path d="M128.631 161.75L127.864 161.646C127.701 161.625 127.536 161.668 127.405 161.768C127.274 161.868 127.188 162.016 127.166 162.179L126.459 167.412C126.448 167.493 126.453 167.575 126.473 167.654C126.494 167.733 126.53 167.807 126.58 167.872C126.629 167.937 126.691 167.991 126.762 168.032C126.832 168.073 126.91 168.1 126.991 168.111L127.757 168.215C127.921 168.237 128.086 168.193 128.217 168.093C128.348 167.993 128.434 167.846 128.456 167.683L129.163 162.449C129.174 162.368 129.169 162.286 129.148 162.207C129.127 162.128 129.091 162.054 129.042 161.989C128.992 161.925 128.931 161.87 128.86 161.829C128.79 161.788 128.712 161.761 128.631 161.75Z" fill="#FDC871"/>
<g opacity="0.53">
<path d="M177.97 60.2764C177.881 60.3315 173.912 62.7547 171.087 62.6958C168.231 62.6352 166.474 68.0722 171.087 68.5676C173.996 68.8821 176.519 67.3968 177.979 66.2615C177.92 64.5254 177.949 62.496 177.97 60.2764Z" fill="#F9F9FC"/>
</g>
<g opacity="0.53">
<path d="M126.322 58.7735C123.466 58.1524 121.078 54.6307 121.078 54.6307L120.898 54.5812C119.971 56.8144 118.894 58.9821 117.674 61.0694C118.281 61.9139 119.125 62.7457 120.283 63.5139C126.488 67.6331 129.179 59.3939 126.322 58.7735Z" fill="#F9F9FC"/>
</g>
<path d="M219.204 12.0269H191.679C185.759 12.0269 180.959 16.8264 180.959 22.7468C180.959 28.6673 185.759 33.4667 191.679 33.4667H219.204C225.124 33.4667 229.924 28.6673 229.924 22.7468C229.924 16.8264 225.124 12.0269 219.204 12.0269Z" fill="white"/>
<path d="M219.205 11.9484H191.679C185.725 11.9484 180.881 16.7926 180.881 22.747C180.881 28.7013 185.725 33.5447 191.679 33.5447H219.205C225.159 33.5447 230.003 28.7005 230.003 22.747C230.003 16.7934 225.159 11.9484 219.205 11.9484ZM219.205 33.3875H191.679C185.812 33.3875 181.038 28.6141 181.038 22.747C181.038 16.8799 185.812 12.1057 191.679 12.1057H219.205C225.072 12.1057 229.846 16.8791 229.846 22.747C229.846 28.6148 225.072 33.3875 219.205 33.3875Z" fill="#B86228"/>
<path d="M188.622 37.521H183.741C183.237 37.521 182.753 37.7213 182.397 38.0778C182.04 38.4344 181.84 38.918 181.84 39.4222C181.84 39.9264 182.04 40.41 182.397 40.7665C182.753 41.1231 183.237 41.3234 183.741 41.3234H188.622C189.126 41.3234 189.61 41.1231 189.966 40.7665C190.323 40.41 190.523 39.9264 190.523 39.4222C190.523 38.918 190.323 38.4344 189.966 38.0778C189.61 37.7213 189.126 37.521 188.622 37.521Z" fill="white"/>
<path d="M188.622 37.4424H183.741C183.216 37.4424 182.712 37.651 182.341 38.0223C181.97 38.3936 181.761 38.8972 181.761 39.4223C181.761 39.9473 181.97 40.4509 182.341 40.8222C182.712 41.1935 183.216 41.4021 183.741 41.4021H188.622C189.147 41.4021 189.651 41.1935 190.022 40.8222C190.393 40.4509 190.602 39.9473 190.602 39.4223C190.602 38.8972 190.393 38.3936 190.022 38.0223C189.651 37.651 189.147 37.4424 188.622 37.4424ZM188.622 41.2448H183.741C183.258 41.2448 182.794 41.0528 182.452 40.711C182.111 40.3692 181.918 39.9056 181.918 39.4223C181.918 38.9389 182.111 38.4753 182.452 38.1335C182.794 37.7917 183.258 37.5997 183.741 37.5997H188.622C189.106 37.5997 189.569 37.7917 189.911 38.1335C190.253 38.4753 190.445 38.9389 190.445 39.4223C190.445 39.9056 190.253 40.3692 189.911 40.711C189.569 41.0528 189.106 41.2448 188.622 41.2448Z" fill="#B86228"/>
<path d="M185.965 44.2548H183.422C182.991 44.2642 182.582 44.4418 182.28 44.7496C181.979 45.0575 181.811 45.471 181.811 45.9016C181.811 46.3323 181.979 46.7458 182.28 47.0536C182.582 47.3614 182.991 47.539 183.422 47.5484H185.965C186.184 47.5532 186.402 47.5142 186.606 47.4336C186.81 47.353 186.996 47.2324 187.153 47.079C187.309 46.9256 187.434 46.7425 187.519 46.5403C187.604 46.3381 187.648 46.121 187.648 45.9016C187.648 45.6823 187.604 45.4651 187.519 45.263C187.434 45.0608 187.309 44.8776 187.153 44.7242C186.996 44.5708 186.81 44.4503 186.606 44.3697C186.402 44.289 186.184 44.25 185.965 44.2548Z" fill="white"/>
<path d="M185.965 44.1759H183.422C182.971 44.1855 182.541 44.3715 182.225 44.6941C181.91 45.0166 181.733 45.45 181.733 45.9013C181.733 46.3527 181.91 46.786 182.225 47.1086C182.541 47.4311 182.971 47.6171 183.422 47.6268H185.965C186.194 47.6317 186.423 47.5907 186.636 47.5062C186.85 47.4217 187.045 47.2953 187.209 47.1346C187.373 46.9739 187.503 46.7821 187.592 46.5703C187.681 46.3585 187.727 46.1311 187.727 45.9013C187.727 45.6716 187.681 45.4442 187.592 45.2324C187.503 45.0206 187.373 44.8287 187.209 44.668C187.045 44.5073 186.85 44.381 186.636 44.2965C186.423 44.212 186.194 44.171 185.965 44.1759ZM185.965 47.4695H183.422C183.012 47.4603 182.622 47.2911 182.336 46.998C182.049 46.7049 181.888 46.3113 181.888 45.9013C181.888 45.4914 182.049 45.0977 182.336 44.8046C182.622 44.5115 183.012 44.3423 183.422 44.3331H185.965C186.174 44.3284 186.381 44.3655 186.576 44.4423C186.77 44.519 186.947 44.6337 187.096 44.7798C187.246 44.9259 187.365 45.1004 187.446 45.2929C187.527 45.4855 187.568 45.6924 187.568 45.9013C187.568 46.1103 187.527 46.3171 187.446 46.5097C187.365 46.7023 187.246 46.8767 187.096 47.0228C186.947 47.1689 186.77 47.2837 186.576 47.3604C186.381 47.4371 186.174 47.4742 185.965 47.4695Z" fill="#B86228"/>
<path d="M208.441 22.4021C207.939 21.2573 205.969 21.3202 205.103 21.7503C204.761 20.8068 203.506 19.3051 202.375 19.6888C201.446 19.9561 201.192 20.8886 201.177 21.8549C201.142 24.1484 202.75 25.9867 203.037 26.2934C203.104 26.361 203.102 26.372 203.115 26.3767C203.652 26.3901 205.98 26.3264 207.65 24.7507C208.357 24.0863 208.871 23.2694 208.441 22.4021H208.441Z" fill="#EB1A38"/>
<path d="M195.805 22.4021C195.303 21.2573 193.333 21.3202 192.467 21.7503C192.125 20.8068 190.87 19.3051 189.74 19.6888C188.811 19.9561 188.561 20.8886 188.542 21.8549C188.506 24.1484 190.114 25.9867 190.401 26.2934C190.469 26.361 190.467 26.372 190.48 26.3767C191.017 26.3901 193.345 26.3264 195.014 24.7507C195.718 24.0863 196.235 23.2694 195.805 22.4021Z" fill="#EB1A38"/>
<path d="M222.405 22.4021C221.903 21.2573 219.934 21.3202 219.066 21.7503C218.724 20.8068 217.47 19.3051 216.34 19.6888C215.411 19.9561 215.16 20.8886 215.142 21.8549C215.106 24.1484 216.715 25.9867 217.002 26.2934C217.069 26.361 217.067 26.372 217.08 26.3767C217.617 26.3901 219.945 26.3264 221.615 24.7507C222.318 24.0863 222.835 23.2694 222.405 22.4021Z" fill="#EB1A38"/>
</g>
<defs>
<clipPath id="clip0_7706_69331">
<rect width="298" height="191.51" fill="white"/>
</clipPath>
</defs>
</svg>
