<svg width="64" height="64" viewBox="0 0 64 64" fill="none" xmlns="http://www.w3.org/2000/svg">
<path fill-rule="evenodd" clip-rule="evenodd" d="M57.5999 31.9984C57.5999 46.1369 46.1384 57.5984 31.9999 57.5984C17.8614 57.5984 6.3999 46.1369 6.3999 31.9984C6.3999 17.8599 17.8614 6.39844 31.9999 6.39844C46.1384 6.39844 57.5999 17.8599 57.5999 31.9984ZM35.1999 44.7984C35.1999 46.5657 33.7672 47.9984 31.9999 47.9984C30.2326 47.9984 28.7999 46.5657 28.7999 44.7984C28.7999 43.0311 30.2326 41.5984 31.9999 41.5984C33.7672 41.5984 35.1999 43.0311 35.1999 44.7984ZM31.9999 15.9984C30.2326 15.9984 28.7999 17.4311 28.7999 19.1984V31.9984C28.7999 33.7657 30.2326 35.1984 31.9999 35.1984C33.7672 35.1984 35.1999 33.7657 35.1999 31.9984V19.1984C35.1999 17.4311 33.7672 15.9984 31.9999 15.9984Z" fill="#D40000"/>
</svg>
